<svg width="88" height="88" viewBox="0 0 88 88" fill="none" xmlns="http://www.w3.org/2000/svg">
<path d="M18.6689 57.4943H24.9194V79.7177H18.6689V57.4943Z" fill="#DFF6FD"/>
<path d="M85.4898 53.7893C83.8625 52.162 81.2242 52.162 79.5969 53.7893L67.5583 65.8279H60.685C62.9862 65.8279 64.8519 63.9624 64.8519 61.661C64.8519 59.3598 62.9864 57.4941 60.685 57.4941H47.4898L44.8132 55.3238C42.3889 53.3582 39.3627 52.2854 36.2416 52.2854C33.1812 52.2854 30.2102 53.3168 27.8082 55.2131L24.9192 57.4939V79.7173L50.2823 81.3079C51.8128 81.4038 53.3458 81.1607 54.7716 80.5958L69.006 74.9557C70.3282 74.4318 71.5291 73.6428 72.5348 72.6371L85.4898 59.682C87.1171 58.0549 87.1171 55.4166 85.4898 53.7893Z" fill="#FED2A4"/>
<path d="M85.4899 53.7893C83.8626 52.162 81.2243 52.162 79.597 53.7893L67.5584 65.828H64.1126C61.6 70.1742 58.3284 74.4637 54.3553 78.4367C53.3488 79.4432 52.3215 80.404 51.2786 81.3198C52.4734 81.2802 53.6554 81.0382 54.7716 80.596L69.0061 74.9559C70.3283 74.432 71.5292 73.643 72.5349 72.6373L85.4899 59.6822C87.1172 58.0549 87.1172 55.4166 85.4899 53.7893Z" fill="#FFBD86"/>
<path d="M1.28906 52.2858V79.7179H18.6689V55.7582C18.6689 53.8404 17.1143 52.2858 15.1965 52.2858H1.28906Z" fill="#0573CE"/>
<path d="M15.1965 52.2856H13.113V79.7177H18.6689V55.7581C18.6689 53.8404 17.1143 52.2856 15.1965 52.2856Z" fill="#0067C5"/>
<path d="M10.6725 67.7546C12.2068 67.7546 13.4506 66.5109 13.4506 64.9766C13.4506 63.4424 12.2068 62.1986 10.6725 62.1986C9.13829 62.1986 7.89453 63.4424 7.89453 64.9766C7.89453 66.5109 9.13829 67.7546 10.6725 67.7546Z" fill="#F2FBFF"/>
<path d="M61.5705 18.0742C57.1544 18.0742 53.3136 19.6787 50.1553 22.8429C49.0714 23.9286 48.1588 25.1121 47.385 26.2694C46.6112 25.1121 45.6986 23.9286 44.6147 22.8427C41.4565 19.6785 37.6158 18.074 33.1995 18.074C25.6822 18.074 19.5662 24.19 19.5662 31.7073C19.5662 39.2246 25.6822 45.3406 33.1995 45.3406C37.6156 45.3406 41.4563 43.7362 44.6147 40.572C45.6986 39.4861 46.6112 38.3027 47.385 37.1453C48.1588 38.3025 49.0714 39.4861 50.1553 40.5718C53.3135 43.736 57.1542 45.3405 61.5705 45.3405C69.0878 45.3405 75.2038 39.2246 75.2038 31.7072C75.2038 24.1897 69.0878 18.0742 61.5705 18.0742ZM33.1995 39.898C28.6833 39.898 25.0089 36.2239 25.0089 31.7075C25.0089 27.1911 28.6833 23.517 33.1995 23.517C39.2921 23.517 42.3204 28.0553 44.3038 31.7075C42.3204 35.3597 39.2923 39.898 33.1995 39.898ZM61.5705 39.8979C55.4781 39.8979 52.4496 35.3595 50.4664 31.7073C52.4498 28.0552 55.4781 23.5168 61.5705 23.5168C66.0867 23.5168 69.7611 27.191 69.7611 31.7073C69.7611 36.2237 66.0867 39.8979 61.5705 39.8979Z" fill="#FE76A8"/>
<path d="M49.7954 30.4442C50.0059 30.8461 50.229 31.2708 50.466 31.7072C51.1817 30.3903 52.0337 28.9584 53.1158 27.6652C52.3962 26.3134 51.4299 24.5933 50.1525 22.8456C49.0699 23.9307 48.1581 25.1132 47.385 26.2694C48.4108 27.8039 49.1916 29.292 49.7954 30.4442Z" fill="#FE5694"/>
<path d="M44.9745 32.9706C44.764 32.5688 44.5409 32.1441 44.3039 31.7077C43.5882 33.0246 42.7362 34.4565 41.6541 35.7497C42.3737 37.1015 43.3401 38.8216 44.6175 40.5691C45.7 39.484 46.612 38.3015 47.3849 37.1453C46.359 35.611 45.5783 34.1229 44.9745 32.9706Z" fill="#FE5694"/>
<path d="M86.4016 52.8786C84.2739 50.7513 80.8127 50.7513 78.6851 52.8786L67.0247 64.5391H65.3185C65.8395 63.7033 66.1406 62.7172 66.1406 61.6619C66.1406 60.2037 65.5731 58.8332 64.5437 57.8038C63.5149 56.7728 62.1447 56.2049 60.6853 56.2049H58.1295C57.4174 56.2049 56.8404 56.782 56.8404 57.4939C56.8404 58.2059 57.4174 58.783 58.1295 58.783H60.6853C61.4549 58.783 62.1772 59.0819 62.7198 59.6259C63.2632 60.1694 63.5625 60.8924 63.5625 61.6619C63.5625 63.2482 62.2722 64.5386 60.686 64.5391C60.6856 64.5391 60.6853 64.5391 60.6851 64.5391H45.7536C45.4118 64.5391 45.084 64.6749 44.8422 64.9167L43.0191 66.7398C42.5155 67.2432 42.5155 68.0593 43.0189 68.5627C43.2707 68.8145 43.6006 68.9403 43.9306 68.9403C44.2604 68.9403 44.5904 68.8145 44.842 68.5627L46.2877 67.1172H67.5586C67.9004 67.1172 68.2282 66.9814 68.4702 66.7396L80.5083 54.7015C81.6305 53.5793 83.4567 53.5793 84.5792 54.702C85.1226 55.2448 85.4219 55.967 85.4219 56.7353C85.4219 57.5039 85.1225 58.2267 84.5787 58.7705L71.6227 71.7262C70.7372 72.6119 69.6969 73.2954 68.531 73.7578L54.2957 79.3972C53.0578 79.8886 51.6969 80.1043 50.3625 80.0221L26.2092 78.5065V58.1184L28.6065 56.2248C29.6859 55.3723 30.8952 54.7103 32.2003 54.2567C33.5039 53.8045 34.8635 53.5752 36.2416 53.5752C39.0583 53.5752 41.8141 54.5516 44.0012 56.3245L46.6788 58.4953C46.9085 58.6814 47.195 58.783 47.4906 58.783H52.1141C52.8261 58.783 53.4031 58.2059 53.4031 57.4939C53.4031 56.782 52.8261 56.2049 52.1141 56.2049H47.9475L45.6246 54.3218C42.9796 52.1779 39.6473 50.9971 36.2416 50.9971C34.5754 50.9971 32.9313 51.2743 31.3548 51.8212C29.7768 52.3695 28.3147 53.1704 27.0088 54.2017L24.4723 56.2052H19.9583V55.758C19.9583 53.1328 17.8226 50.9971 15.1974 50.9971H11.4385C10.7264 50.9971 10.1494 51.5742 10.1494 52.2861C10.1494 52.998 10.7264 53.5752 11.4385 53.5752H15.1974C16.401 53.5752 17.3802 54.5544 17.3802 55.758V78.4283H2.57813V53.5752H5.42266C6.13473 53.5752 6.71172 52.998 6.71172 52.2861C6.71172 51.5742 6.13473 50.9971 5.42266 50.9971H1.28906C0.576984 50.9971 0 51.5742 0 52.2861V79.7174C0 80.4293 0.576984 81.0064 1.28906 81.0064L24.8861 81.0068L50.2023 82.5954C50.44 82.61 50.6782 82.6174 50.9164 82.6174C52.3952 82.6174 53.8789 82.3364 55.2458 81.794L69.481 76.1546C70.976 75.5616 72.3101 74.6851 73.4456 73.5493L86.4016 60.5935C87.4321 59.5628 87.9998 58.1926 87.9998 56.7355C88 55.278 87.4321 53.9079 86.4016 52.8786ZM23.6309 58.7834V78.4287H19.958V58.7834H23.6309Z" fill="black"/>
<path d="M10.6724 69.0436C12.915 69.0436 14.7395 67.2191 14.7395 64.9767C14.7395 62.7342 12.915 60.9098 10.6724 60.9098C8.42992 60.9098 6.60547 62.7342 6.60547 64.9767C6.60547 67.2191 8.43009 69.0436 10.6724 69.0436ZM10.6724 63.4877C11.4933 63.4877 12.1613 64.1556 12.1613 64.9767C12.1613 65.7976 11.4933 66.4657 10.6724 66.4657C9.8515 66.4657 9.18359 65.7977 9.18359 64.9767C9.18359 64.1558 9.8515 63.4877 10.6724 63.4877Z" fill="black"/>
<path d="M18.2771 31.7075C18.2771 39.9353 24.9709 46.6292 33.1989 46.6292C37.9709 46.6292 42.1189 44.8975 45.5268 41.4831C46.1709 40.8389 46.786 40.1359 47.3855 39.3577C47.9438 40.0809 48.5596 40.7981 49.2428 41.4826C52.6518 44.8979 56.7996 46.6297 61.5705 46.6297C77.0049 46.464 82.1672 26.0882 68.6887 18.5958C68.0629 18.2554 67.2805 18.4862 66.9401 19.1115C66.5998 19.7368 66.8304 20.5196 67.4557 20.8601C71.4396 23.0294 73.9142 27.186 73.9142 31.7077C73.9142 31.7099 73.9146 31.712 73.9146 31.7142C73.9108 38.5177 68.3749 44.0516 61.5705 44.0516C57.5089 44.0516 53.9754 42.5745 51.0676 39.6612C48.6857 37.2749 47.1397 34.325 46.116 32.3716C44.1278 28.5777 40.7999 22.2277 33.1995 22.2277C27.9724 22.2277 23.72 26.4803 23.72 31.7073C23.72 36.9339 27.9722 41.1862 33.1989 41.1862C39.0645 41.1862 42.402 37.3074 44.2557 34.3716C44.6965 35.2002 45.2168 36.1405 45.8335 37.1217C45.1446 38.0834 44.4433 38.9204 43.7029 39.6609C40.7955 42.574 37.2616 44.0509 33.1989 44.0509C26.3927 44.0509 20.8552 38.5136 20.8552 31.7073C20.8552 24.9007 26.3929 19.3631 33.1995 19.3631C37.261 19.3631 40.7946 20.8402 43.7024 23.7533C46.0846 26.14 47.6306 29.09 48.6538 31.0427C50.642 34.8368 53.97 41.1869 61.5705 41.1869C66.7976 41.1869 71.0499 36.9344 71.0499 31.7075C71.0499 26.4808 66.7978 22.2284 61.571 22.2284C55.7036 22.2284 52.3675 26.1071 50.5145 29.0438C50.0738 28.2152 49.5534 27.2745 48.9367 26.2933C49.6257 25.3304 50.3268 24.4931 51.0665 23.7533C53.9747 20.8405 57.5086 19.3638 61.5703 19.3638C61.7843 19.3638 62.0036 19.3695 62.2408 19.3811C62.9493 19.4172 63.5565 18.8681 63.5916 18.1569C63.6265 17.4458 63.0785 16.841 62.3673 16.8061C62.0877 16.7924 61.8268 16.7857 61.5702 16.7857C56.7989 16.7857 52.6512 18.517 49.2426 21.9309C48.5989 22.5748 47.9838 23.2781 47.3841 24.057C46.8259 23.3338 46.2101 22.6165 45.527 21.9321C42.1179 18.5168 37.9702 16.785 33.1993 16.785C24.9713 16.785 18.2771 23.4793 18.2771 31.7075ZM33.1989 38.6083C29.3938 38.6083 26.2982 35.5126 26.2982 31.7075C26.2982 27.902 29.3941 24.806 33.1995 24.806C38.2698 24.806 40.9538 28.3736 42.8317 31.7077C40.7611 35.3669 38.1006 38.6083 33.1989 38.6083ZM61.571 24.8066C65.3762 24.8066 68.4718 27.9024 68.4718 31.7075C68.4718 35.513 65.3758 38.609 61.5705 38.609C56.5007 38.609 53.8166 35.0419 51.9388 31.7087C54.0078 28.0483 56.6671 24.8066 61.571 24.8066Z" fill="black"/>
<path d="M12.0535 44.2243H12.8479V45.0187C12.8479 45.7307 13.4249 46.3078 14.1369 46.3078C14.849 46.3078 15.426 45.7307 15.426 45.0187V44.2243H16.2204C16.9325 44.2243 17.5095 43.6472 17.5095 42.9353C17.5095 42.2234 16.9325 41.6462 16.2204 41.6462H15.426V40.8518C15.426 40.1399 14.849 39.5627 14.1369 39.5627C13.4249 39.5627 12.8479 40.1399 12.8479 40.8518V41.6462H12.0535C11.3414 41.6462 10.7644 42.2234 10.7644 42.9353C10.7644 43.6472 11.3416 44.2243 12.0535 44.2243Z" fill="black"/>
<path d="M73.8625 15.9889H74.657V16.7833C74.657 17.4952 75.2339 18.0723 75.946 18.0723C76.6581 18.0723 77.2351 17.4952 77.2351 16.7833V15.9889H78.0295C78.7416 15.9889 79.3185 15.4117 79.3185 14.6998C79.3185 13.9879 78.7416 13.4107 78.0295 13.4107H77.2351V12.6163C77.2351 11.9044 76.6581 11.3273 75.946 11.3273C75.2339 11.3273 74.657 11.9044 74.657 12.6163V13.4107H73.8625C73.1505 13.4107 72.5735 13.9879 72.5735 14.6998C72.5735 15.4117 73.1505 15.9889 73.8625 15.9889Z" fill="black"/>
<path d="M23.175 10.0442H23.9695V10.8386C23.9695 11.5505 24.5464 12.1277 25.2585 12.1277C25.9706 12.1277 26.5476 11.5505 26.5476 10.8386V10.0442H27.342C28.0541 10.0442 28.631 9.46707 28.631 8.75516C28.631 8.04325 28.0541 7.4661 27.342 7.4661H26.5476V6.67169C26.5476 5.95979 25.9706 5.38263 25.2585 5.38263C24.5464 5.38263 23.9695 5.95979 23.9695 6.67169V7.4661H23.175C22.463 7.4661 21.886 8.04325 21.886 8.75516C21.886 9.46707 22.4631 10.0442 23.175 10.0442Z" fill="black"/>
<path d="M78.1709 40.8518C78.1709 41.5637 78.7479 42.1408 79.46 42.1408H80.2542V42.9352C80.2542 43.6472 80.8312 44.2243 81.5433 44.2243C82.2553 44.2243 82.8323 43.6472 82.8323 42.9352V42.1408H83.6267C84.3388 42.1408 84.9158 41.5637 84.9158 40.8518C84.9158 40.1399 84.3388 39.5627 83.6267 39.5627H82.8323V38.7683C82.8323 38.0564 82.2553 37.4792 81.5433 37.4792C80.8312 37.4792 80.2542 38.0564 80.2542 38.7683V39.5627H79.46C78.7479 39.5629 78.1709 40.1399 78.1709 40.8518Z" fill="black"/>
</svg>
