<svg width="88" height="88" viewBox="0 0 88 88" fill="none" xmlns="http://www.w3.org/2000/svg">
<path d="M81.8207 38.3666C81.4838 28.7678 77.5967 19.7918 70.7712 12.9663C63.617 5.81077 54.1089 1.8714 43.9999 1.8714C23.5825 1.8714 6.89966 18.1225 6.18053 38.3666C3.06478 39.7513 0.884033 42.8698 0.884033 46.4943V56.4795C0.884033 61.3828 4.87291 65.373 9.77753 65.373C12.951 65.373 15.5319 62.7922 15.5319 59.6187V43.3538C15.5319 40.3741 13.2467 37.9445 10.3413 37.6558C11.4138 20.0186 26.096 5.9964 43.9999 5.9964C53.0089 5.9964 61.4803 9.50815 67.8562 15.884C73.7109 21.7388 77.1374 29.37 77.653 37.6571C74.7504 37.9486 72.4693 40.3769 72.4693 43.3538V59.6173C72.4693 62.6217 74.7903 65.0664 77.73 65.3208V69.4306C77.73 74.0589 73.9639 77.8236 69.3357 77.8236H63.1193C62.814 76.9519 62.3355 76.1461 61.6645 75.4779C60.4889 74.2968 58.9214 73.6464 57.2522 73.6464H50.8447C49.9248 73.6464 49.042 73.8417 48.2335 74.2184C46.028 75.2318 44.6035 77.4565 44.6035 79.8861C44.6035 81.5554 45.2539 83.1229 46.4323 84.2958C47.6107 85.4769 49.1782 86.1273 50.8447 86.1273H57.2522C59.9087 86.1273 62.2503 84.4099 63.1234 81.9486H69.3357C76.2395 81.9486 81.855 76.3331 81.855 69.4306V64.5865C84.9515 63.1936 87.1158 60.0862 87.1158 56.4768V46.4915C87.1158 42.8698 84.935 39.7513 81.8207 38.3666Z" fill="#003556"/>
<path d="M11.4054 43.3537V59.6172C11.4054 60.5151 10.6753 61.2466 9.77607 61.2466C7.14707 61.2466 5.00757 59.1071 5.00757 56.4781V46.4929C5.00757 43.8625 7.14707 41.7244 9.77607 41.7244C10.6753 41.7244 11.4054 42.4559 11.4054 43.3537Z" fill="#72B5E9"/>
<path d="M59.3214 80.3289C59.1166 81.2997 58.2448 82.005 57.2507 82.005H50.8432C50.2794 82.005 49.7501 81.785 49.3458 81.3808C48.9471 80.9834 48.7271 80.4527 48.7271 79.8889C48.7271 79.0653 49.2097 78.3132 49.9659 77.9653C50.2354 77.8388 50.5311 77.7742 50.8432 77.7742H57.2507C57.8144 77.7742 58.3438 77.9928 58.7467 78.397C59.1454 78.7944 59.3654 79.3252 59.3654 79.8889C59.3668 80.0402 59.3503 80.1914 59.3214 80.3289Z" fill="#72B5E9"/>
<path d="M82.9909 56.4781C82.9909 59.1071 80.8514 61.2466 78.2224 61.2466C77.3245 61.2466 76.593 60.5165 76.593 59.6172V43.3537C76.593 42.4559 77.3231 41.7244 78.2224 41.7244C80.8514 41.7244 82.9909 43.8639 82.9909 46.4929V56.4781Z" fill="#72B5E9"/>
<path d="M57.3553 57.189C62.1747 57.189 66.0948 53.2675 66.0948 48.4495V30.6418C66.0948 28.3126 65.1845 26.1181 63.5318 24.4653C61.879 22.8126 59.6859 21.9023 57.3553 21.9023H30.6445C25.8252 21.9023 21.905 25.8225 21.905 30.6418V48.4495C21.905 53.2688 25.8252 57.189 30.6445 57.189H30.8082V61.8035C30.8082 63.5635 31.8573 65.1255 33.4798 65.7841C34.0037 65.9945 34.5482 66.099 35.0872 66.099C36.2105 66.099 37.305 65.6535 38.1067 64.8243L45.7833 57.189H57.3553Z" fill="#003556"/>
<path d="M43.4802 53.6635L35.1725 61.9258C35.1354 61.9643 35.1079 61.9932 35.0295 61.9588C34.9346 61.9203 34.9346 61.8585 34.9346 61.8035V55.1265C34.9346 53.988 34.012 53.064 32.8721 53.064H30.646C28.1009 53.064 26.0315 50.9932 26.0315 48.4495V30.6418C26.0315 28.0967 28.1009 26.0273 30.646 26.0273H57.3567C58.586 26.0273 59.7424 26.5086 60.6169 27.3817C61.4914 28.2562 61.9712 29.414 61.9712 30.6418V48.4495C61.9712 50.9946 59.9005 53.064 57.3567 53.064H44.935C44.3891 53.064 43.8666 53.2798 43.4802 53.6635Z" fill="#DDE5F1"/>
<path d="M33.9804 36.8322C32.3029 36.8322 30.9375 38.1989 30.9375 39.875C30.9375 41.5512 32.3042 42.9179 33.9804 42.9179C35.6592 42.9179 37.026 41.5512 37.026 39.875C37.026 38.1989 35.6606 36.8322 33.9804 36.8322Z" fill="#003556"/>
<path d="M43.9987 36.8322C42.3212 36.8322 40.9558 38.1989 40.9558 39.875C40.9558 41.5512 42.3226 42.9179 43.9987 42.9179C45.6789 42.9179 47.0443 41.5512 47.0443 39.875C47.0443 38.1989 45.6789 36.8322 43.9987 36.8322Z" fill="#003556"/>
<path d="M54.017 36.8322C52.3395 36.8322 50.9741 38.1989 50.9741 39.875C50.9741 41.5512 52.3409 42.9179 54.017 42.9179C55.6959 42.9179 57.0626 41.5512 57.0626 39.875C57.0626 38.1989 55.6959 36.8322 54.017 36.8322Z" fill="#003556"/>
</svg>
