<svg width="88" height="88" viewBox="0 0 88 88" fill="none" xmlns="http://www.w3.org/2000/svg">
<g id="online-chat_2600346 1" clip-path="url(#clip0_87_1175)">
<g id="Group">
<g id="Group_2">
<path id="Vector" d="M50.9323 6.97412H15.3342C7.59108 6.97412 1.31421 13.2512 1.31421 20.9941V35.1425C1.31421 40.2715 4.07005 44.7545 8.18044 47.1982C8.71257 47.5146 9.04033 48.0858 9.04033 48.7049V56.3572C9.04033 57.294 10.173 57.7632 10.8354 57.1008L18.2602 49.6759C18.5888 49.3473 19.0347 49.1627 19.4994 49.1627H50.9326C58.6758 49.1627 64.9526 42.8857 64.9526 35.1427V20.9943C64.9523 13.2512 58.6753 6.97412 50.9323 6.97412Z" fill="#F9C301"/>
</g>
<g id="Group_3">
<path id="Vector_2" d="M54.9113 7.55054C55.2841 8.81227 55.4876 10.1467 55.4876 11.5294V25.6778C55.4876 33.4208 49.2106 39.6979 41.4676 39.6979H5.86935C4.48576 39.6979 3.15029 39.4942 1.8877 39.1207C2.89918 42.5421 5.18134 45.4175 8.18743 47.2024C8.71715 47.517 9.04027 48.0886 9.04027 48.7048V56.3574C9.04027 57.2941 10.1729 57.7633 10.8353 57.1009L18.2602 49.6761C18.5888 49.3474 19.0346 49.1628 19.4994 49.1628H50.9326C58.6757 49.1628 64.9526 42.8858 64.9526 35.1428V20.9944C64.9524 14.6339 60.7155 9.26585 54.9113 7.55054Z" fill="#D4A806"/>
</g>
<g id="Group_4">
<path id="Vector_3" d="M72.6657 29.1262H36.8923C29.1492 29.1262 22.8723 35.4033 22.8723 43.1462V57.2946C22.8723 65.0378 29.1494 71.3147 36.8923 71.3147H67.1726C67.6373 71.3147 68.0832 71.4993 68.4118 71.8279L77.3062 80.7222C77.9686 81.3846 79.1012 80.9154 79.1012 79.9787V70.7715C79.1012 70.1638 79.4145 69.5968 79.934 69.2812C83.9809 66.8225 86.6857 62.3758 86.6857 57.2945V43.1461C86.6857 35.4031 80.4087 29.1262 72.6657 29.1262Z" fill="#FCE25C"/>
</g>
<g id="Group_5">
<path id="Vector_4" d="M76.6445 29.7024C77.0175 30.9641 77.2208 32.2986 77.2208 33.6813V47.8297C77.2208 55.5728 70.9437 61.8497 63.2008 61.8497H27.4274C26.0448 61.8497 24.7102 61.6464 23.4485 61.2734C25.1638 67.0778 30.5318 71.3145 36.8922 71.3145H67.1725C67.6372 71.3145 68.083 71.4991 68.4117 71.8278L77.306 80.7221C77.9684 81.3845 79.1011 80.9153 79.1011 79.9786V70.7714C79.1011 70.1637 79.4144 69.5966 79.9338 69.2811C83.9808 66.8224 86.6856 62.3757 86.6856 57.2943V43.1459C86.6856 36.7857 82.4487 31.4177 76.6445 29.7024Z" fill="#F9C301"/>
</g>
<g id="Group_6">
<path id="Vector_5" d="M33.4779 56.11H33.3624C31.737 56.11 30.4192 54.7922 30.4192 53.1668V48.3118C30.4192 46.6864 31.737 45.3687 33.3624 45.3687H33.4779C35.1033 45.3687 36.4211 46.6864 36.4211 48.3118V53.1668C36.4211 54.7922 35.1033 56.11 33.4779 56.11Z" fill="#7C8B96"/>
</g>
<g id="Group_7">
<path id="Vector_6" d="M54.8368 56.11H54.7213C53.0958 56.11 51.7781 54.7922 51.7781 53.1668V48.3118C51.7781 46.6864 53.0958 45.3687 54.7213 45.3687H54.8368C56.4622 45.3687 57.78 46.6864 57.78 48.3118V53.1668C57.78 54.7922 56.4622 56.11 54.8368 56.11Z" fill="#7C8B96"/>
</g>
<g id="Group_8">
<path id="Vector_7" d="M33.9944 45.4248C34.0305 45.6108 34.0508 45.8026 34.0508 45.999V50.7385C34.0508 52.3959 32.7072 53.7394 31.0498 53.7394C30.8532 53.7394 30.6616 53.7191 30.4756 53.6831C30.7437 55.0654 31.9594 56.1096 33.4201 56.1096C35.0775 56.1096 36.4211 54.766 36.4211 53.1086V48.3692C36.4209 46.9086 35.3768 45.6929 33.9944 45.4248Z" fill="#465961"/>
</g>
<g id="Group_9">
<path id="Vector_8" d="M55.3533 45.4248C55.3894 45.6108 55.4096 45.8026 55.4096 45.999V50.7385C55.4096 52.3959 54.0661 53.7394 52.4087 53.7394C52.2121 53.7394 52.0204 53.7191 51.8345 53.6831C52.1026 55.0654 53.3183 56.1096 54.779 56.1096C56.4364 56.1096 57.78 54.766 57.78 53.1086V48.3692C57.7798 46.9086 56.7357 45.6929 55.3533 45.4248Z" fill="#465961"/>
</g>
<g id="Group_10">
<path id="Vector_9" d="M47.293 63.5061C48.999 63.5061 50.382 62.4195 50.382 61.0792C50.382 59.7389 48.999 58.6523 47.293 58.6523C45.5871 58.6523 44.2041 59.7389 44.2041 61.0792C44.2041 62.4195 45.5871 63.5061 47.293 63.5061Z" fill="#7C8B96"/>
</g>
<g id="Group_11">
<path id="Vector_10" d="M48.6631 58.9065C48.7116 59.0772 48.7392 59.2542 48.7392 59.4364C48.7392 60.7767 47.3561 61.8633 45.6503 61.8633C45.1575 61.8633 44.6936 61.7703 44.2803 61.6091C44.5883 62.6943 45.8191 63.5062 47.2932 63.5062C48.9993 63.5062 50.3822 62.4196 50.3822 61.0793C50.382 60.1261 49.6808 59.3035 48.6631 58.9065Z" fill="#465961"/>
</g>
<g id="Group_12">
<path id="Vector_11" d="M72.6657 27.8117H66.2668V20.9943C66.2668 17.0875 64.7969 13.3659 62.1278 10.5154C61.6316 9.98532 60.7997 9.95816 60.27 10.4544C59.7401 10.9506 59.7128 11.7823 60.209 12.312C62.4202 14.6737 63.6381 17.7572 63.6381 20.9943V27.8117H36.8923C28.4369 27.8117 21.5579 34.6908 21.5579 43.1462V47.8484H19.4992C18.6802 47.8484 17.9101 48.1674 17.3307 48.7466L10.3546 55.7226V48.705C10.3546 47.6299 9.779 46.6196 8.85208 46.0686C5.01342 43.7863 2.62866 39.5997 2.62866 35.1428V20.9943C2.62866 13.9883 8.32837 8.28857 15.3343 8.28857H50.9324C52.5745 8.28857 54.1717 8.59674 55.6798 9.20483C56.353 9.47588 57.1189 9.15035 57.3903 8.47729C57.6617 7.80405 57.336 7.03818 56.6627 6.76679C54.841 6.03219 52.9129 5.65991 50.9324 5.65991H15.3343C6.87895 5.65991 0 12.5389 0 20.9943V35.1428C0 40.5222 2.87719 45.5744 7.5087 48.3281C7.64277 48.4078 7.72595 48.5522 7.72595 48.7052V56.3574C7.72595 57.3176 8.29916 58.1755 9.18638 58.5431C9.77848 58.8277 10.9875 58.7867 11.7647 58.0304L19.1893 50.6056C19.2722 50.5227 19.3822 50.4772 19.4992 50.4772H21.5579V57.2946C21.5579 59.3643 21.9636 61.3727 22.7635 63.264C23.0462 63.9324 23.8174 64.2447 24.486 63.9625C25.1546 63.6798 25.4672 62.9086 25.1847 62.24C24.5226 60.6745 24.1868 59.0108 24.1868 57.2948V43.1464C24.1868 36.1402 29.8865 30.4405 36.8925 30.4405H72.6657C79.6716 30.4405 85.3713 36.1402 85.3713 43.1464V57.2948C85.3713 61.769 83.0835 65.8301 79.2512 68.1583C78.348 68.7071 77.7868 69.7086 77.7868 70.7718V79.3443L69.3412 70.8985C68.762 70.3193 67.9919 70.0003 67.1727 70.0003H36.8923C33.7038 70.0003 30.6549 68.8144 28.307 66.6611C27.7721 66.1707 26.9407 66.2065 26.4498 66.7414C25.9591 67.2764 25.9951 68.1078 26.5301 68.5985C29.3642 71.1977 33.044 72.6291 36.8921 72.6291H67.1724C67.2877 72.6291 67.4006 72.6759 67.4821 72.7575L76.3764 81.6519C77.0633 82.1797 77.7346 82.5877 78.9546 82.1646C79.8418 81.7969 80.415 80.9391 80.415 79.9788V70.7717C80.415 70.6206 80.492 70.4798 80.6157 70.4047C85.2397 67.5958 88 62.6949 88 57.2946V43.1462C88 34.6908 81.121 27.8117 72.6657 27.8117Z" fill="black"/>
<path id="Vector_12" d="M51.0692 59.157C50.2985 58.068 48.8944 57.3379 47.2931 57.3379C44.865 57.3379 42.8898 59.0162 42.8898 61.0792C42.8898 63.1421 44.8652 64.8204 47.2931 64.8204C49.4236 64.8204 51.2051 63.5281 51.6099 61.8176C53.5486 61.001 55.0749 59.3739 55.7373 57.3153C57.6568 56.8783 59.0942 55.1588 59.0942 53.1087V48.3693C59.0942 46.3901 57.7546 44.7191 55.9348 44.2125C55.5065 41.5726 54.2091 39.1504 52.2204 37.3198C50.0013 35.277 47.1172 34.1521 44.0995 34.1521C38.161 34.1521 33.194 38.4296 32.2629 44.2126C30.4438 44.7197 29.1047 46.3905 29.1047 48.3691V53.1085C29.1047 55.488 31.0406 57.4238 33.42 57.4238C35.7994 57.4238 37.7353 55.488 37.7353 53.1085V48.3691C37.7353 46.5137 36.5581 44.9281 34.9115 44.3197C35.7637 39.9653 39.5702 36.7808 44.0995 36.7808C48.5713 36.7808 52.4258 40.0209 53.2839 44.3211C51.6391 44.9304 50.4636 46.5149 50.4636 48.3691V53.1085C50.4636 54.8623 51.5159 56.3742 53.0218 57.0484C52.604 57.9463 51.9167 58.6797 51.0692 59.157ZM47.2931 62.192C46.2472 62.192 45.5185 61.6057 45.5185 61.0794C45.5185 60.5531 46.2472 59.9667 47.2931 59.9667C48.3389 59.9667 49.0678 60.5531 49.0678 61.0794C49.0678 61.6057 48.3388 62.192 47.2931 62.192ZM35.1066 53.1089C35.1066 54.0389 34.35 54.7955 33.42 54.7955C32.49 54.7955 31.7334 54.0389 31.7334 53.1089V48.3694C31.7334 47.4394 32.49 46.6828 33.42 46.6828C34.35 46.6828 35.1066 47.4394 35.1066 48.3694V53.1089ZM53.0923 48.3694C53.0923 47.4394 53.8489 46.6828 54.7789 46.6828C55.7089 46.6828 56.4655 47.4394 56.4655 48.3694V53.1089C56.4655 54.0389 55.7089 54.7955 54.7789 54.7955C53.8489 54.7955 53.0923 54.0389 53.0923 53.1089V48.3694Z" fill="black"/>
<path id="Vector_13" d="M62.5096 41.6013H72.9787C73.7045 41.6013 74.293 41.013 74.293 40.287C74.293 39.561 73.7045 38.9727 72.9787 38.9727H62.5096C61.7838 38.9727 61.1953 39.561 61.1953 40.287C61.1953 41.013 61.7838 41.6013 62.5096 41.6013Z" fill="black"/>
<path id="Vector_14" d="M62.5096 47.4851H70.5821C71.3079 47.4851 71.8964 46.8968 71.8964 46.1708C71.8964 45.4448 71.3079 44.8564 70.5821 44.8564H62.5096C61.7838 44.8564 61.1953 45.4448 61.1953 46.1708C61.1953 46.8968 61.7838 47.4851 62.5096 47.4851Z" fill="black"/>
<path id="Vector_15" d="M12.9307 24.8109C14.013 24.8109 14.8903 23.9336 14.8903 22.8514C14.8903 21.7692 14.013 20.8918 12.9307 20.8918C11.8485 20.8918 10.9712 21.7692 10.9712 22.8514C10.9712 23.9336 11.8485 24.8109 12.9307 24.8109Z" fill="black"/>
<path id="Vector_16" d="M18.8656 24.8109C19.9478 24.8109 20.8251 23.9336 20.8251 22.8514C20.8251 21.7692 19.9478 20.8918 18.8656 20.8918C17.7833 20.8918 16.906 21.7692 16.906 22.8514C16.906 23.9336 17.7833 24.8109 18.8656 24.8109Z" fill="black"/>
<path id="Vector_17" d="M24.7655 24.8109C25.8477 24.8109 26.725 23.9336 26.725 22.8514C26.725 21.7692 25.8477 20.8918 24.7655 20.8918C23.6832 20.8918 22.8059 21.7692 22.8059 22.8514C22.8059 23.9336 23.6832 24.8109 24.7655 24.8109Z" fill="black"/>
</g>
</g>
</g>
<defs>
<clipPath id="clip0_87_1175">
<rect width="88" height="88" fill="white"/>
</clipPath>
</defs>
</svg>
