<svg width="88" height="88" viewBox="0 0 88 88" fill="none" xmlns="http://www.w3.org/2000/svg">
<g clip-path="url(#clip0_87_1257)">
<path d="M33.6875 32.2266C42.2307 32.2266 49.1562 25.301 49.1562 16.7578C49.1562 8.21466 42.2307 1.28906 33.6875 1.28906C25.1443 1.28906 18.2188 8.21466 18.2188 16.7578C18.2188 25.301 25.1443 32.2266 33.6875 32.2266Z" fill="#C4F3FF"/>
<path d="M33.6875 6.44531V27.0703C39.3829 27.0703 44 22.4532 44 16.7578C44 11.0624 39.3829 6.44531 33.6875 6.44531Z" fill="#7D8FE5"/>
<path d="M38.8438 16.7578C38.8438 11.0624 36.5353 6.44531 33.6875 6.44531C27.9921 6.44531 23.375 11.0624 23.375 16.7578C23.375 22.4532 27.9921 27.0703 33.6875 27.0703C36.5353 27.0703 38.8438 22.4532 38.8438 16.7578Z" fill="#95B0ED"/>
<path d="M49.1562 45.1172L64.625 86.7109H69.7812V45.1172H49.1562Z" fill="#FF7647"/>
<path d="M23.375 45.1172V71.2422L49.1562 86.7109H64.625V45.1172H23.375Z" fill="#FF9733"/>
<path d="M28.5312 60.9297V45.1172C28.5312 42.2694 26.2226 39.9609 23.375 39.9609C20.5272 39.9609 18.2188 42.2694 18.2188 45.1172V71.6662C18.2188 74.7505 19.1407 77.7643 20.8663 80.3206L25.1797 86.7109H49.1562V81.5547C49.1562 70.1546 39.9314 60.9297 28.5312 60.9297Z" fill="#FFB820"/>
<path d="M64.625 39.9609L62.0469 49.9297L64.625 59.8984C67.4728 59.8984 69.7812 57.59 69.7812 54.7422V45.1172C69.7812 42.2694 67.4728 39.9609 64.625 39.9609Z" fill="#FFB820"/>
<path d="M59.4688 45.1172L54.3125 49.9297L59.4688 54.7422C59.4688 57.59 61.7772 59.8984 64.625 59.8984V39.9609C61.7774 39.9609 59.4688 42.2694 59.4688 45.1172Z" fill="#FFD06A"/>
<path d="M54.3125 37.7266L51.7344 48.8125L54.3125 59.8984C57.1603 59.8984 59.4688 57.59 59.4688 54.7422V42.8828C59.4688 40.035 57.1603 37.7266 54.3125 37.7266Z" fill="#FFB820"/>
<path d="M49.1562 42.8828L46.5781 48.8125L49.1562 54.7422C49.1562 57.59 51.4647 59.8984 54.3125 59.8984V37.7266C51.4649 37.7266 49.1562 40.035 49.1562 42.8828Z" fill="#FFD06A"/>
<path d="M44 35.1484L41.4219 48.8125L44 59.8984C46.8478 59.8984 49.1562 57.59 49.1562 54.7422V40.3047C49.1562 37.4569 46.8478 35.1484 44 35.1484Z" fill="#FFB820"/>
<path d="M38.8438 40.3047L36.2656 45.1172L38.8438 49.9297V54.7422C38.8438 57.59 41.1522 59.8984 44 59.8984V35.1484C41.1524 35.1484 38.8438 37.4569 38.8438 40.3047Z" fill="#FFD06A"/>
<path d="M33.6875 11.6016L31.1094 17.5312V44.7734L33.6875 49.9297H38.8438V16.7578C38.8438 13.91 36.5353 11.6016 33.6875 11.6016Z" fill="#FFB820"/>
<path d="M28.5312 16.7578V49.9297H33.6875V11.6016C30.8399 11.6016 28.5312 13.91 28.5312 16.7578Z" fill="#FFD06A"/>
<path d="M64.625 38.6719C62.9396 38.6719 61.4039 39.3229 60.2542 40.3858C59.2766 38.0683 56.9815 36.4375 54.3125 36.4375C52.6754 36.4375 51.1799 37.052 50.0419 38.0612C49.1288 35.6101 46.7653 33.8594 44 33.8594C42.5502 33.8594 41.2106 34.3406 40.1328 35.1515V16.7578C40.1328 13.2038 37.2415 10.3125 33.6875 10.3125C30.1335 10.3125 27.2422 13.2038 27.2422 16.7578V39.9644C26.1642 39.1533 24.8249 38.6719 23.375 38.6719C19.821 38.6719 16.9297 41.5632 16.9297 45.1172V71.6662C16.9297 75.0202 17.9216 78.2623 19.7978 81.042L24.1111 87.4323C24.3509 87.7872 24.7512 88.0002 25.1795 88.0002H69.7812C70.4932 88.0002 71.0703 87.4232 71.0703 86.7111V45.1174C71.0703 41.5632 68.179 38.6719 64.625 38.6719ZM54.3125 39.0156C56.445 39.0156 58.1797 40.7505 58.1797 42.8828V54.7422C58.1797 56.8745 56.445 58.6094 54.3125 58.6094C52.18 58.6094 50.4453 56.8745 50.4453 54.7422V42.8828C50.4453 40.7505 52.18 39.0156 54.3125 39.0156ZM40.1328 40.3047C40.1328 38.1724 41.8675 36.4375 44 36.4375C46.1325 36.4375 47.8672 38.1724 47.8672 40.3047V54.7422C47.8672 56.8745 46.1325 58.6094 44 58.6094C41.8675 58.6094 40.1328 56.8745 40.1328 54.7422V40.3047ZM25.8648 85.4219L21.9347 79.5994C20.3471 77.2473 19.5078 74.504 19.5078 71.6662V45.1172C19.5078 42.9849 21.2425 41.25 23.375 41.25C25.5075 41.25 27.2422 42.9849 27.2422 45.1172V60.9297C27.2422 61.6418 27.8193 62.2188 28.5312 62.2188C39.1932 62.2188 47.8672 70.8929 47.8672 81.5547C47.8672 82.2668 48.4443 82.8438 49.1562 82.8438C49.8682 82.8438 50.4453 82.2668 50.4453 81.5547C50.4453 69.9041 41.3059 60.3479 29.8203 59.6781V16.7578C29.8203 14.6255 31.555 12.8906 33.6875 12.8906C35.82 12.8906 37.5547 14.6255 37.5547 16.7578V54.7422C37.5547 58.2962 40.446 61.1875 44 61.1875C46.1062 61.1875 47.9794 60.1719 49.1562 58.6049C50.3331 60.1719 52.2063 61.1875 54.3125 61.1875C56.4187 61.1875 58.2919 60.1719 59.4688 58.6049C60.6456 60.1719 62.5188 61.1875 64.625 61.1875C66.0749 61.1875 67.4142 60.7061 68.4922 59.895V85.4219H25.8648ZM64.625 58.6094C62.4925 58.6094 60.7578 56.8745 60.7578 54.7422V45.1172C60.7578 42.9849 62.4925 41.25 64.625 41.25C66.7575 41.25 68.4922 42.9849 68.4922 45.1172V54.7422C68.4922 56.8745 66.7575 58.6094 64.625 58.6094Z" fill="black"/>
<path d="M44 18.0469C44.7119 18.0469 45.2891 17.4699 45.2891 16.7578C45.2891 10.3606 40.0847 5.15625 33.6875 5.15625C27.2903 5.15625 22.0859 10.3606 22.0859 16.7578C22.0859 17.4699 22.6631 18.0469 23.375 18.0469C24.0869 18.0469 24.6641 17.4699 24.6641 16.7578C24.6641 11.7824 28.7119 7.73438 33.6875 7.73438C38.6631 7.73438 42.7109 11.7824 42.7109 16.7578C42.7109 17.4699 43.2881 18.0469 44 18.0469Z" fill="black"/>
<path d="M22.5153 29.2442C23.0457 29.7189 23.8607 29.674 24.3354 29.1435C24.8103 28.6131 24.7651 27.7982 24.2349 27.3233C21.2307 24.6342 19.5078 20.7833 19.5078 16.7578C19.5078 8.93922 25.8687 2.57812 33.6875 2.57812C41.5063 2.57812 47.8672 8.93922 47.8672 16.7578C47.8672 20.7835 46.1443 24.6345 43.1403 27.3237C42.6099 27.7985 42.5647 28.6134 43.0396 29.1438C43.2941 29.4283 43.6466 29.5732 44.0005 29.5732C44.3066 29.5732 44.6138 29.4647 44.8599 29.2445C48.4095 26.0669 50.4453 21.5158 50.4453 16.7578C50.4453 7.51747 42.9278 0 33.6875 0C24.4472 0 16.9297 7.51747 16.9297 16.7578C16.9297 21.5157 18.9655 26.0667 22.5153 29.2442Z" fill="black"/>
</g>
<defs>
<clipPath id="clip0_87_1257">
<rect width="88" height="88" fill="white"/>
</clipPath>
</defs>
</svg>
