<svg width="88" height="88" viewBox="0 0 88 88" fill="none" xmlns="http://www.w3.org/2000/svg">
<path d="M41.0576 50.2752H62.3053C71.0238 50.2752 78.2505 43.3016 78.3151 34.5833C78.331 32.4968 77.9337 30.4279 77.1462 28.4957C76.3587 26.5634 75.1965 24.8062 73.7267 23.3252C72.2569 21.8442 70.5086 20.6688 68.5824 19.8667C66.6562 19.0645 64.5903 18.6516 62.5038 18.6516C62.4891 18.6516 62.4743 18.6516 62.4596 18.6516C61.3005 18.6575 60.1641 18.3304 59.1857 17.709C58.2072 17.0876 57.4279 16.1982 56.9404 15.1466C55.5342 12.1192 53.2921 9.5567 50.4782 7.76104C47.6643 5.96538 44.3957 5.01135 41.0577 5.01135C37.7196 5.01135 34.4511 5.96538 31.6371 7.76104C28.8232 9.5567 26.5811 12.1192 25.1749 15.1466C24.6875 16.1982 23.9081 17.0877 22.9297 17.709C21.9512 18.3304 20.8148 18.6576 19.6557 18.6516C19.641 18.6516 19.6263 18.6516 19.6116 18.6516C17.5251 18.6516 15.4592 19.0646 13.533 19.8667C11.6068 20.6689 9.85846 21.8443 8.38867 23.3253C6.91888 24.8062 5.75674 26.5635 4.96924 28.4957C4.18174 30.4279 3.78444 32.4968 3.80026 34.5833C3.8649 43.3016 11.0916 50.2752 19.8101 50.2752L41.0576 50.2752Z" fill="#65A8F9"/>
<path d="M47.209 23.5482C49.7589 17.9282 52.4381 14.2675 54.9816 11.9086C53.1536 9.50956 50.7369 7.62338 47.9657 6.4329C45.1945 5.24242 42.1627 4.78803 39.1642 5.11376C36.1657 5.43949 33.3022 6.5343 30.8512 8.29207C28.4003 10.0499 26.445 12.411 25.1748 15.1466C24.6873 16.1982 23.908 17.0877 22.9295 17.709C21.9511 18.3304 20.8147 18.6576 19.6556 18.6516C19.6409 18.6516 19.6261 18.6516 19.6114 18.6516C15.6833 18.6518 11.8958 20.114 8.98653 22.7534C6.07729 25.3929 4.25456 29.0206 3.87329 32.9302C14.3166 40.7367 39.451 40.6472 47.209 23.5482Z" fill="#9EC8FB"/>
<path d="M76.8054 41.1641C76.4983 41.8107 76.1462 42.435 75.7518 43.0323C72.4025 39.593 68.1137 37.2172 63.4215 36.202C61.6745 35.8169 59.8909 35.6221 58.102 35.6211C53.3436 35.6358 48.6911 37.0272 44.7059 39.6275C40.7207 42.2278 37.5732 45.9257 35.6431 50.2752H33.4053C35.3936 45.3493 38.8051 41.1279 43.2041 38.1503C47.6032 35.1727 52.79 33.5741 58.102 33.5586C60.0399 33.5602 61.9721 33.7705 63.865 34.1859C68.7504 35.2447 73.2366 37.6638 76.8054 41.1641Z" fill="#146EEA"/>
<path d="M28.2014 51.2733H19.8689C10.5026 51.2733 2.8267 43.7435 2.75805 34.4883C2.74118 32.2566 3.16617 30.0436 4.00853 27.9768C4.8509 25.9101 6.09398 24.0305 7.66612 22.4464C9.23826 20.8623 11.1084 19.605 13.1687 18.747C15.229 17.889 17.4387 17.4472 19.6706 17.4472L19.7274 17.4474C19.7319 17.4475 19.7364 17.4475 19.7408 17.4475C20.6807 17.4451 21.6005 17.1753 22.3928 16.6697C23.1852 16.1642 23.8173 15.4436 24.2155 14.5922C25.7099 11.3747 28.0928 8.65143 31.0834 6.74306C34.074 4.8347 37.5477 3.8208 41.0952 3.8208C44.6428 3.8208 48.1165 4.8347 51.1071 6.74306C54.0977 8.65143 56.4805 11.3747 57.975 14.5922C58.3741 15.4448 59.0078 16.1661 59.8019 16.6717C60.5959 17.1773 61.5176 17.4464 62.4589 17.4474H62.4725L62.5197 17.4473C65.0694 17.4458 67.5864 18.0212 69.8823 19.1303C72.1781 20.2394 74.1933 21.8535 75.777 23.8518C77.3606 25.85 78.4717 28.1807 79.027 30.6692C79.5824 33.1577 79.5675 35.7396 78.9836 38.2216C78.9504 38.3649 78.8891 38.5003 78.8034 38.62C78.7177 38.7396 78.6092 38.8411 78.4841 38.9187C78.359 38.9963 78.2199 39.0483 78.0746 39.072C77.9293 39.0956 77.7808 39.0903 77.6376 39.0563C77.4944 39.0224 77.3593 38.9605 77.2401 38.8742C77.1209 38.7879 77.0199 38.6789 76.943 38.5534C76.866 38.428 76.8146 38.2885 76.7917 38.1432C76.7688 37.9978 76.7748 37.8493 76.8095 37.7063C77.3142 35.5526 77.3256 33.3126 76.8427 31.1539C76.3598 28.9952 75.3952 26.9735 74.021 25.2401C72.6467 23.5067 70.8984 22.1064 68.9068 21.1438C66.9151 20.1813 64.7316 19.6814 62.5196 19.6816L62.4883 19.6817H62.4683C61.0998 19.6814 59.7597 19.291 58.6051 18.5564C57.4504 17.8219 56.529 16.7735 55.9488 15.5341C54.6338 12.7027 52.537 10.3061 49.9054 8.62674C47.2737 6.94735 44.2169 6.05509 41.0951 6.05509C37.9733 6.05509 34.9165 6.94735 32.2848 8.62674C29.6532 10.3061 27.5564 12.7027 26.2414 15.5341C25.6621 16.7722 24.7422 17.8198 23.5893 18.5543C22.4365 19.2888 21.0983 19.6799 19.7313 19.6817H19.7116L19.6706 19.6816C17.7336 19.6816 15.8157 20.065 14.0276 20.8097C12.2394 21.5544 10.6163 22.6456 9.2519 24.0205C7.88745 25.3953 6.80861 27.0267 6.07757 28.8204C5.34652 30.6142 4.97773 32.5349 4.99244 34.4719C5.05195 42.5042 11.7255 49.039 19.8689 49.039H28.2014C28.4977 49.039 28.7819 49.1567 28.9914 49.3662C29.2009 49.5757 29.3186 49.8598 29.3186 50.1561C29.3186 50.4524 29.2009 50.7366 28.9914 50.9461C28.7819 51.1556 28.4977 51.2733 28.2014 51.2733Z" fill="black"/>
<path d="M9.54069 35.8306C9.24585 35.8305 8.96297 35.7139 8.75373 35.5062C8.54449 35.2985 8.42585 35.0165 8.42368 34.7216C8.41207 33.2015 8.70146 31.6941 9.27515 30.2863C9.84884 28.8786 10.6955 27.5983 11.7663 26.5192C12.8371 25.4402 14.1109 24.5838 15.5143 23.9994C16.9176 23.4149 18.4227 23.114 19.9429 23.114L20.0077 23.1142C20.304 23.1146 20.588 23.2327 20.7972 23.4424C21.0065 23.6522 21.1238 23.9365 21.1234 24.2328C21.123 24.5291 21.0049 24.8131 20.7952 25.0224C20.5854 25.2316 20.301 25.3489 20.0048 25.3486H20.0017L19.9399 25.3484C18.7148 25.3488 17.5019 25.5917 16.371 26.063C15.2402 26.5343 14.2138 27.2247 13.351 28.0944C12.4883 28.9642 11.8061 29.9961 11.3439 31.1307C10.8818 32.2653 10.6487 33.4801 10.6581 34.7052C10.6592 34.8519 10.6314 34.9974 10.5762 35.1333C10.5211 35.2693 10.4397 35.393 10.3367 35.4976C10.2337 35.6021 10.1112 35.6853 9.97604 35.7424C9.84091 35.7995 9.69584 35.8295 9.54913 35.8306H9.54069Z" fill="black"/>
<path d="M35.3711 69.5582H19.578C19.1016 69.5577 18.6449 69.3682 18.308 69.0313C17.9711 68.6944 17.7816 68.2377 17.781 67.7612V51.1466C17.0304 51.0554 16.2867 50.9147 15.5547 50.7252C15.5495 50.7681 15.5468 50.8113 15.5466 50.8546V67.7612C15.5478 68.8301 15.973 69.8548 16.7287 70.6105C17.4845 71.3663 18.5092 71.7914 19.5781 71.7926H36.1932C36.2669 71.7925 36.3405 71.7852 36.4128 71.7708C36.0274 71.0471 35.6802 70.3096 35.3711 69.5582Z" fill="black"/>
<path d="M16.6638 61.9444C18.3292 61.9444 19.6792 60.5944 19.6792 58.9291C19.6792 57.2637 18.3292 55.9137 16.6638 55.9137C14.9985 55.9137 13.6484 57.2637 13.6484 58.9291C13.6484 60.5944 14.9985 61.9444 16.6638 61.9444Z" fill="#FFA05E"/>
<path d="M16.6637 63.0616C15.8464 63.0616 15.0474 62.8192 14.3678 62.3651C13.6883 61.911 13.1586 61.2656 12.8458 60.5105C12.533 59.7554 12.4512 58.9245 12.6107 58.1229C12.7701 57.3212 13.1637 56.5849 13.7417 56.007C14.3196 55.429 15.0559 55.0355 15.8576 54.876C16.6592 54.7166 17.4901 54.7984 18.2452 55.1112C19.0003 55.424 19.6457 55.9537 20.0998 56.6333C20.5539 57.3129 20.7962 58.1119 20.7962 58.9292C20.795 60.0248 20.3592 61.0752 19.5845 61.8499C18.8097 62.6246 17.7593 63.0604 16.6637 63.0616ZM16.6637 57.031C16.2883 57.031 15.9213 57.1423 15.6092 57.3509C15.2971 57.5595 15.0538 57.8559 14.9101 58.2027C14.7665 58.5496 14.7289 58.9312 14.8021 59.2994C14.8753 59.6676 15.0561 60.0058 15.3215 60.2713C15.587 60.5367 15.9252 60.7175 16.2934 60.7907C16.6616 60.864 17.0432 60.8264 17.3901 60.6828C17.7369 60.5391 18.0333 60.2958 18.2419 59.9837C18.4505 59.6716 18.5618 59.3046 18.5618 58.9292C18.5613 58.426 18.3611 57.9435 18.0053 57.5876C17.6494 57.2318 17.167 57.0316 16.6637 57.031Z" fill="black"/>
<path d="M25.9726 73.6909C27.638 73.6909 28.988 72.3409 28.988 70.6755C28.988 69.0102 27.638 67.6602 25.9726 67.6602C24.3073 67.6602 22.9573 69.0102 22.9573 70.6755C22.9573 72.3409 24.3073 73.6909 25.9726 73.6909Z" fill="#FFA05E"/>
<path d="M25.9727 74.8079C25.1554 74.8079 24.3565 74.5655 23.6769 74.1115C22.9973 73.6574 22.4677 73.012 22.1549 72.2569C21.8421 71.5017 21.7603 70.6708 21.9197 69.8692C22.0792 69.0676 22.4728 68.3313 23.0507 67.7534C23.6286 67.1754 24.365 66.7818 25.1666 66.6224C25.9682 66.4629 26.7991 66.5448 27.5542 66.8575C28.3093 67.1703 28.9547 67.6999 29.4088 68.3795C29.8629 69.0591 30.1053 69.858 30.1053 70.6754C30.1041 71.771 29.6683 72.8214 28.8935 73.5962C28.1188 74.3709 27.0684 74.8067 25.9727 74.8079ZM25.9727 68.7774C25.5973 68.7774 25.2304 68.8887 24.9182 69.0973C24.6061 69.3059 24.3628 69.6023 24.2192 69.9492C24.0755 70.296 24.0379 70.6777 24.1112 71.0458C24.1845 71.414 24.3652 71.7522 24.6307 72.0177C24.8962 72.2831 25.2344 72.4639 25.6026 72.5371C25.9708 72.6103 26.3524 72.5727 26.6993 72.429C27.0461 72.2854 27.3425 72.0421 27.5511 71.7299C27.7596 71.4178 27.8709 71.0508 27.8709 70.6754C27.8703 70.1721 27.6701 69.6897 27.3143 69.3339C26.9584 68.978 26.476 68.7779 25.9727 68.7774Z" fill="black"/>
<path d="M58.1511 83.8437C71.2246 83.8437 81.8228 73.2455 81.8228 60.172C81.8228 47.0985 71.2246 36.5004 58.1511 36.5004C45.0777 36.5004 34.4795 47.0985 34.4795 60.172C34.4795 73.2455 45.0777 83.8437 58.1511 83.8437Z" fill="#1B9D63"/>
<path d="M76.2589 44.9264C75.1142 45.2409 74.1517 45.5709 73.5312 45.9044C73.5312 45.9044 64.4029 48.9998 60.1009 61.875C56.9986 71.1597 48.8878 74.9615 40.1737 75.5734C38.1454 73.2062 36.6046 70.4617 35.6398 67.4974C34.675 64.5332 34.3052 61.4075 34.5516 58.2999C34.798 55.1924 35.6558 52.1641 37.0757 49.3889C38.4956 46.6137 40.4497 44.1463 42.8257 42.1283C45.2017 40.1104 47.953 38.5816 50.9214 37.6298C53.8899 36.6779 57.0171 36.3218 60.1236 36.5817C63.23 36.8417 66.2546 37.7127 69.0235 39.1447C71.7925 40.5767 74.2513 42.5416 76.2589 44.9264Z" fill="#67D68D"/>
<path d="M85.8479 60.5464C85.7625 60.3438 85.6193 60.1709 85.4362 60.0494C85.2531 59.9278 85.0382 59.8629 84.8184 59.8629H82.758C82.6877 55.2381 81.3156 50.7268 78.7988 46.8462C76.282 42.9655 72.7225 39.8728 68.5285 37.9224C64.3345 35.9721 59.6758 35.2432 55.0865 35.8194C50.4972 36.3955 46.1632 38.2533 42.5814 41.1798C38.9996 44.1062 36.3151 47.9829 34.8356 52.3652C33.3561 56.7475 33.1416 61.458 34.2167 65.9566C35.2917 70.4553 37.6128 74.5599 40.9138 77.7997C44.2148 81.0396 48.362 83.2837 52.88 84.2745C54.6272 84.6589 56.4108 84.8533 58.1999 84.8543C62.9105 84.8403 67.5184 83.4765 71.4779 80.9245C75.4373 78.3726 78.5825 74.7393 80.5408 70.455C80.6015 70.3214 80.6354 70.1772 80.6405 70.0306C80.6456 69.884 80.6217 69.7378 80.5703 69.6004C80.5188 69.463 80.4409 69.3371 80.3408 69.2298C80.2407 69.1226 80.1204 69.0361 79.9869 68.9753C79.8534 68.9145 79.7092 68.8806 79.5626 68.8755C79.4159 68.8704 79.2697 68.8943 79.1323 68.9457C78.9949 68.9972 78.869 69.0752 78.7617 69.1753C78.6545 69.2754 78.568 69.3956 78.5072 69.5291C76.7233 73.4465 73.8435 76.7636 70.2155 79.0799C59.826 85.7322 45.9614 82.6917 39.309 72.3021C37.4445 69.3887 36.2809 66.0826 35.9096 62.6437C35.5383 59.2047 35.9694 55.7264 37.1691 52.4822C38.3688 49.2379 40.3044 46.316 42.8237 43.946C45.3431 41.5759 48.3777 39.8223 51.6892 38.8229C55.0006 37.8234 58.4987 37.6054 61.9086 38.1859C65.3185 38.7664 68.5473 40.1296 71.3415 42.1684C74.1357 44.2073 76.4192 46.8662 78.0124 49.9364C79.6057 53.0066 80.4654 56.4044 80.524 59.8628H78.7561C78.5378 59.8628 78.3243 59.9268 78.142 60.0468C77.9596 60.1668 77.8165 60.3376 77.7301 60.5381C77.6438 60.7386 77.618 60.96 77.6561 61.1749C77.6942 61.3899 77.7944 61.589 77.9444 61.7476L80.927 64.9015C81.0303 65.0108 81.1547 65.0981 81.2927 65.1582C81.4306 65.2183 81.5793 65.2499 81.7297 65.2511H81.7387C81.8876 65.2511 82.035 65.2213 82.1723 65.1635C82.3095 65.1057 82.4338 65.021 82.5379 64.9144L85.6175 61.7605C85.7711 61.6032 85.8749 61.4042 85.9159 61.1882C85.9569 60.9722 85.9332 60.749 85.8479 60.5464Z" fill="black"/>
<path d="M58.1116 77.2637C67.511 77.2637 75.1307 69.644 75.1307 60.2446C75.1307 50.8453 67.511 43.2256 58.1116 43.2256C48.7122 43.2256 41.0925 50.8453 41.0925 60.2446C41.0925 69.644 48.7122 77.2637 58.1116 77.2637Z" fill="#FFD563"/>
<path d="M69.8701 47.9393C66.84 50.105 62.6342 54.2953 60.1007 61.875C57.9729 68.2447 53.487 72.0328 48.0678 73.9818C46.1877 72.6072 44.6097 70.8613 43.4316 68.8523C42.2535 66.8432 41.5003 64.6137 41.2187 62.3017C40.937 59.9898 41.1329 57.6447 41.7941 55.4115C42.4554 53.1783 43.568 51.1046 45.0631 49.3188C46.5581 47.533 48.4038 46.0731 50.4859 45.0294C52.568 43.9857 54.8421 43.3804 57.1675 43.2511C59.493 43.1218 61.8202 43.4712 64.0051 44.2776C66.1901 45.084 68.1863 46.3303 69.8701 47.9393Z" fill="#FDF9C5"/>
<path d="M61.7405 59.9093H59.2631C59.1551 59.9092 59.0515 59.8663 58.9752 59.7899C58.8988 59.7135 58.8558 59.61 58.8557 59.502V53.6112C58.8557 53.3149 58.738 53.0307 58.5285 52.8212C58.319 52.6117 58.0348 52.494 57.7385 52.494C57.4422 52.494 57.1581 52.6117 56.9486 52.8212C56.739 53.0307 56.6213 53.3149 56.6213 53.6112V59.502C56.6221 60.2024 56.9007 60.8738 57.3959 61.3691C57.8912 61.8643 58.5627 62.1429 59.2631 62.1437H61.7405C62.0368 62.1437 62.3209 62.026 62.5305 61.8165C62.74 61.607 62.8577 61.3228 62.8577 61.0265C62.8577 60.7302 62.74 60.446 62.5305 60.2365C62.3209 60.027 62.0368 59.9093 61.7405 59.9093Z" fill="black"/>
<path d="M58.1513 42.0159C54.5551 42.0159 51.0397 43.0823 48.0496 45.0802C45.0595 47.0781 42.729 49.9178 41.3528 53.2402C39.9766 56.5626 39.6166 60.2185 40.3181 63.7456C41.0197 67.2727 42.7514 70.5125 45.2943 73.0553C47.8372 75.5982 51.077 77.3299 54.604 78.0315C58.1311 78.7331 61.787 78.373 65.1094 76.9968C68.4318 75.6206 71.2715 73.2901 73.2695 70.3C75.2674 67.3099 76.3338 63.7945 76.3338 60.1984C76.3283 55.3777 74.4109 50.7561 71.0022 47.3474C67.5935 43.9387 62.9719 42.0213 58.1513 42.0159ZM69.5403 71.35C69.5261 71.3341 69.5127 71.3178 69.4974 71.3026L66.8288 68.6338C66.7254 68.5283 66.6022 68.4444 66.4662 68.3868C66.3302 68.3292 66.1841 68.2992 66.0365 68.2984C65.8888 68.2976 65.7424 68.3262 65.6058 68.3823C65.4693 68.4385 65.3452 68.5211 65.2407 68.6256C65.1363 68.73 65.0536 68.8541 64.9974 68.9907C64.9413 69.1272 64.9127 69.2736 64.9135 69.4213C64.9142 69.569 64.9443 69.715 65.0018 69.851C65.0594 69.987 65.1433 70.1103 65.2488 70.2136L67.8694 72.8343C65.2814 74.834 62.1386 75.9849 58.8713 76.1295V72.3857C58.8713 72.0894 58.7536 71.8053 58.5441 71.5957C58.3346 71.3862 58.0504 71.2685 57.7541 71.2685C57.4578 71.2685 57.1737 71.3862 56.9642 71.5957C56.7546 71.8053 56.6369 72.0894 56.6369 72.3857V76.0742C53.2843 75.7557 50.1196 74.3801 47.5998 72.146L50.2348 69.5108C50.3402 69.4075 50.4241 69.2842 50.4816 69.1483C50.539 69.0123 50.569 68.8663 50.5697 68.7186C50.5704 68.571 50.5419 68.4247 50.4857 68.2882C50.4295 68.1517 50.3469 68.0276 50.2425 67.9232C50.1381 67.8188 50.014 67.7362 49.8775 67.68C49.741 67.6239 49.5947 67.5953 49.447 67.5961C49.2994 67.5968 49.1534 67.6268 49.0174 67.6843C48.8814 67.7418 48.7582 67.8257 48.6549 67.9311L46.0325 70.5535C43.9939 68.1771 42.703 65.2514 42.3219 62.1437H45.9812C46.2775 62.1437 46.5617 62.026 46.7712 61.8165C46.9807 61.6069 47.0984 61.3228 47.0984 61.0265C47.0984 60.7302 46.9807 60.446 46.7712 60.2365C46.5617 60.027 46.2775 59.9093 45.9812 59.9093H42.2068C42.2705 56.2125 43.6224 52.6538 46.0293 49.8471L48.6549 52.4728C48.7583 52.5784 48.8815 52.6623 49.0175 52.7199C49.1535 52.7775 49.2996 52.8075 49.4472 52.8083C49.5949 52.809 49.7413 52.7805 49.8779 52.7244C50.0145 52.6682 50.1386 52.5855 50.243 52.4811C50.3474 52.3767 50.4301 52.2526 50.4863 52.116C50.5424 51.9794 50.571 51.8331 50.5702 51.6854C50.5695 51.5377 50.5394 51.3917 50.4819 51.2557C50.4243 51.1197 50.3404 50.9964 50.2349 50.8931L47.596 48.2541C50.1165 46.018 53.2826 44.6411 56.637 44.3225V48.0797C56.637 48.376 56.7547 48.6602 56.9642 48.8697C57.1737 49.0792 57.4579 49.1969 57.7542 49.1969C58.0505 49.1969 58.3346 49.0792 58.5441 48.8697C58.7536 48.6602 58.8713 48.376 58.8713 48.0797V44.3057C58.8713 44.2926 58.8698 44.28 58.8694 44.2671C62.3409 44.4206 65.6662 45.7089 68.3349 47.9345L65.6766 50.5927C65.4671 50.8022 65.3494 51.0864 65.3493 51.3827C65.3493 51.679 65.467 51.9632 65.6765 52.1728C65.886 52.3823 66.1702 52.5 66.4665 52.5C66.7628 52.5 67.047 52.3824 67.2566 52.1728L69.9253 49.5041C69.9337 49.4957 69.9408 49.4865 69.9489 49.478C72.5551 52.3351 74.0295 56.0448 74.0958 59.9115C74.0806 59.9109 74.0657 59.9092 74.0504 59.9092H70.2763C69.98 59.9092 69.6958 60.0269 69.4863 60.2364C69.2768 60.446 69.1591 60.7301 69.1591 61.0264C69.1591 61.3227 69.2768 61.6069 69.4863 61.8164C69.6958 62.0259 69.98 62.1436 70.2763 62.1436H73.9805C73.5535 65.6173 71.9928 68.8532 69.5403 71.35Z" fill="black"/>
</svg>
