<svg width="176" height="176" viewBox="0 0 176 176" fill="none" xmlns="http://www.w3.org/2000/svg">
<g id="hiring_9366610 1" clip-path="url(#clip0_87_1406)">
<g id="Layer_x0020_1">
<path id="Vector" fill-rule="evenodd" clip-rule="evenodd" d="M141.16 141.017C135.65 141.5 130.792 137.423 130.31 131.913L129.609 123.909C129.251 119.814 132.309 116.171 136.441 115.809C140.275 115.473 144.275 114.448 147.357 117.517C149.373 119.554 146.27 122.677 144.22 120.68C142.699 119.163 139.654 119.954 136.825 120.202C135.113 120.352 133.893 121.846 134.04 123.522L134.743 131.563C135.271 137.594 143.666 138.36 145.545 132.831C143.721 132.991 140.308 133.852 140.067 131.097C139.959 129.869 140.839 128.779 142.068 128.671L147.838 128.166C152.864 127.727 150.206 140.226 141.16 141.017ZM122.732 142.63C122.062 142.688 121.362 142.412 120.904 141.889L107.995 127.263L109.246 141.559C109.497 144.425 105.104 144.81 104.853 141.943L103.016 120.947C102.834 118.862 105.507 117.69 106.882 119.258L119.754 133.887L118.503 119.592C118.252 116.725 122.682 116.337 122.933 119.204L124.77 140.201C124.878 141.429 123.923 142.526 122.732 142.63ZM96.5977 144.916C95.3692 145.024 94.3133 144.103 94.2058 142.875L92.3688 121.878C92.118 119.011 96.511 118.627 96.7618 121.494L98.5987 142.49C98.7062 143.719 97.8262 144.809 96.5977 144.916ZM84.6475 145.962C83.7912 146.037 82.8894 145.59 82.4794 144.763L78.1401 136.327L74.7896 136.621L75.4801 144.513C75.7309 147.379 71.3008 147.767 71.05 144.901L69.213 123.904C69.1023 122.638 70.0227 121.582 71.2513 121.475L78.2874 120.859C86.6637 120.126 89.7176 131.451 82.5894 135.3L86.4279 142.73C87.1134 144.133 86.1738 145.828 84.6475 145.962ZM74.402 132.19L79.2044 131.77C83.4857 131.396 82.9189 124.918 78.6377 125.293L73.8353 125.713L74.402 132.19ZM62.8318 147.87C61.6033 147.978 60.5475 147.057 60.44 145.829L58.603 124.832C58.3522 121.966 62.7451 121.581 62.9959 124.448L64.8329 145.444C64.9404 146.673 64.0604 147.763 62.8318 147.87ZM49.0664 138.458L37.9725 139.429L38.6988 147.731C38.9496 150.597 34.5194 150.985 34.2687 148.118L32.4317 127.122C32.1809 124.255 36.611 123.868 36.8618 126.734L37.5849 134.999L48.6788 134.028L47.9558 125.764C47.705 122.897 52.0979 122.513 52.3487 125.379L54.1857 146.376C54.4365 149.243 50.0435 149.627 49.7927 146.76L49.0664 138.458ZM139.838 101.895L133.323 102.465L133.586 105.48L140.101 104.91C142.931 104.663 143.318 109.093 140.489 109.34L131.778 110.102C130.549 110.21 129.456 109.293 129.349 108.064L128.046 93.1729C127.938 91.9443 128.859 90.8885 130.087 90.781L138.799 90.0188C141.628 89.7713 142.015 94.2014 139.186 94.449L132.671 95.0189L132.935 98.0344L139.45 97.4644C142.279 97.2169 142.667 101.647 139.838 101.895ZM120.088 111.125C119.157 111.206 118.249 110.686 117.87 109.781L115.409 103.957L113.511 104.123L113.973 109.409C114.224 112.276 109.794 112.663 109.543 109.797L108.237 94.8684L108.231 94.7939L108.227 94.7567L108.255 94.6417L108.248 94.5673L108.245 94.5301L108.239 94.4556L108.272 94.4151L108.266 94.3407L108.263 94.3034L108.297 94.263L108.29 94.1885L108.324 94.148L108.321 94.1108L108.348 93.9958L108.382 93.9554L108.413 93.8776L108.41 93.8404L108.478 93.7594L108.505 93.6445L108.539 93.604L108.573 93.5635L108.607 93.523L108.641 93.4826L108.672 93.4048L108.706 93.3644L108.702 93.3271L108.736 93.2866C108.811 93.2801 109.649 92.5691 110.245 92.517L115.978 92.0154C122.158 91.4747 124.742 99.5765 119.778 102.862L121.956 108.036C122.526 109.411 121.54 110.998 120.088 111.125ZM116.514 99.4335C118.623 99.099 118.338 96.2729 116.365 96.4455L112.866 96.7517L113.126 99.7299L116.514 99.4335ZM97.2859 102.616C95.5362 102.769 94.271 100.742 95.1896 99.236L98.1493 94.4755C99.6631 92.0548 103.431 94.3885 101.917 96.8093L98.9575 101.57C98.5968 102.164 97.956 102.558 97.2859 102.616ZM87.1599 106.503L80.645 107.073L80.9088 110.089L87.4237 109.519C90.2903 109.268 90.6406 113.701 87.8113 113.949L79.0999 114.711C77.8714 114.819 76.8155 113.898 76.708 112.67L75.4052 97.7783C75.2978 96.5498 76.181 95.4972 77.4095 95.3897L86.1209 94.6275C88.9875 94.3767 89.375 98.8069 86.5085 99.0577L79.9936 99.6276L80.2574 102.643L86.7723 102.073C89.6389 101.822 89.9892 106.256 87.1599 106.503ZM59.3328 115.165L53.0986 104.794L48.76 116.09C48.1215 117.796 45.7017 118.008 44.7766 116.438L36.2143 102.182C34.7271 99.7616 38.5007 97.4433 39.9911 99.9013L46.2253 110.272L50.6011 98.973C51.2429 97.3038 53.6255 97.0954 54.5473 98.6278L60.7815 108.999L65.1201 97.7028C66.1643 95.0606 70.3139 96.6107 69.2728 99.2902L63.3162 114.816C62.6405 116.526 60.2951 116.731 59.3328 115.165ZM129.837 57.904L93.0209 32.4275C87.8052 37.9856 79.0566 38.751 72.955 34.1831L41.1596 65.6622C46.1518 66.1258 45.9019 70.9868 46.2308 74.7469L126.383 67.7345C126.054 63.9744 125.004 59.2646 129.837 57.904ZM95.5506 28.755L136.64 57.1963L140.846 56.8282C143.75 56.5742 146.301 58.7144 146.555 61.6181L146.933 65.9366L157.729 64.9921C161.824 64.6338 165.427 67.6572 165.785 71.7523L172.993 154.138C173.351 158.233 170.328 161.836 166.233 162.194L23.3889 174.692C19.2939 175.05 15.6907 172.027 15.3324 167.931L8.1246 85.5458C7.76633 81.4507 10.7897 77.8476 14.8848 77.4893L25.7182 76.5415L25.3404 72.223C25.0863 69.3193 27.2265 66.7687 30.0931 66.5179L34.3371 66.1466L69.8292 31.0429C63.0566 21.807 68.8718 8.09364 80.7103 7.05791C92.5116 6.02543 100.62 18.5206 95.5506 28.755ZM81.0979 11.488C75.2159 12.0027 70.8676 17.1847 71.3789 23.0295C71.8903 28.8743 77.0724 33.2226 82.9544 32.708C88.7992 32.1967 93.1475 27.0146 92.6361 21.1698C92.1248 15.325 86.9427 10.9767 81.0979 11.488ZM142.503 66.3242C141.952 60.0326 143.207 61.0857 136.171 61.7013C129.209 62.3104 130.263 61.0554 130.813 67.3469L142.503 66.3242ZM41.8379 75.1312C41.2875 68.8397 42.5053 69.896 35.5064 70.5083C28.5448 71.1174 29.5607 69.8656 30.1111 76.1572L41.8379 75.1312ZM15.2692 81.8822C13.5939 82.0288 12.3742 83.5234 12.5175 85.1615L19.7253 167.547C19.8686 169.185 21.3261 170.408 23.0014 170.262L165.845 157.764C167.483 157.621 168.744 156.16 168.6 154.522L161.392 72.1366C161.249 70.4986 159.751 69.2417 158.113 69.385L15.2692 81.8822ZM155.223 153.404L32.7054 164.123C31.4768 164.231 30.4242 163.347 30.3167 162.119C30.1474 160.183 28.447 158.756 26.5111 158.926C25.2826 159.033 24.2268 158.113 24.1225 156.921L18.6931 94.8622C18.5856 93.6337 19.4688 92.5811 20.6973 92.4736C22.6332 92.3043 24.0567 90.5667 23.8906 88.668C23.7831 87.4395 24.6631 86.3497 25.8917 86.2422L148.409 75.5233C149.638 75.4158 150.731 76.333 150.838 77.5615C151.004 79.4602 152.708 80.9242 154.644 80.7548C155.872 80.6473 156.925 81.5306 157.032 82.7591L162.462 144.818C162.566 146.01 161.686 147.099 160.458 147.207C158.522 147.376 157.095 149.077 157.264 151.012C157.335 152.244 156.451 153.297 155.223 153.404ZM34.2197 159.564L152.94 149.178C153.494 146.503 155.362 144.277 157.866 143.307L152.768 85.0453C150.097 84.5288 147.867 82.6231 146.898 80.1195L28.1779 90.5062C27.6613 93.1773 25.7929 95.404 23.2521 96.3765L28.3493 154.638C31.0204 155.155 33.2471 157.023 34.2197 159.564Z" fill="#333333"/>
<path id="Vector_2" fill-rule="evenodd" clip-rule="evenodd" d="M155.223 153.404L32.7053 164.123C31.4768 164.231 30.4242 163.347 30.3167 162.119C30.1474 160.183 28.447 158.756 26.5111 158.926C25.2826 159.033 24.2267 158.113 24.1225 156.921L18.693 94.8622C18.5856 93.6337 19.4688 92.5811 20.6973 92.4736C22.6332 92.3042 24.0567 90.5666 23.8906 88.668C23.7831 87.4395 24.6631 86.3496 25.8916 86.2422L148.409 75.5233C149.638 75.4158 150.731 76.333 150.838 77.5615C151.004 79.4602 152.708 80.9242 154.644 80.7548C155.872 80.6473 156.925 81.5306 157.032 82.7591L162.462 144.818C162.566 146.01 161.686 147.099 160.458 147.207C158.522 147.376 157.095 149.077 157.264 151.012C157.335 152.244 156.451 153.297 155.223 153.404ZM158.113 69.3849L15.2691 81.8822C13.5939 82.0287 12.3742 83.5234 12.5175 85.1615L19.7253 167.547C19.8686 169.185 21.3261 170.408 23.0013 170.262L165.845 157.764C167.483 157.621 168.744 156.16 168.6 154.522L161.392 72.1366C161.249 70.4986 159.751 69.2416 158.113 69.3849Z" fill="#C06000"/>
<g id="Group">
<path id="Vector_3" fill-rule="evenodd" clip-rule="evenodd" d="M34.2196 159.564L152.94 149.178C153.494 146.503 155.362 144.277 157.866 143.307L152.768 85.0454C150.097 84.5288 147.867 82.6232 146.898 80.1196L28.1779 90.5062C27.6613 93.1773 25.7929 95.404 23.2521 96.3766L28.3493 154.638C31.0204 155.155 33.2471 157.023 34.2196 159.564ZM120.904 141.889L107.995 127.263L109.246 141.559C109.497 144.425 105.104 144.81 104.853 141.943L103.016 120.947C102.834 118.862 105.507 117.69 106.882 119.258L119.754 133.887L118.503 119.592C118.252 116.725 122.682 116.337 122.933 119.204L124.77 140.201C124.877 141.429 123.923 142.526 122.732 142.63C122.062 142.688 121.362 142.412 120.904 141.889ZM141.16 141.018C135.65 141.5 130.792 137.423 130.31 131.913L129.609 123.909C129.251 119.814 132.308 116.171 136.441 115.809C140.275 115.474 144.275 114.448 147.356 117.517C149.373 119.554 146.27 122.677 144.22 120.68C142.699 119.163 139.654 119.954 136.825 120.202C135.113 120.352 133.893 121.846 134.039 123.522L134.743 131.563C135.271 137.594 143.666 138.36 145.545 132.831C143.721 132.991 140.308 133.852 140.067 131.097C139.959 129.869 140.839 128.779 142.068 128.671L147.838 128.167C152.864 127.727 150.206 140.226 141.16 141.018ZM98.5987 142.49C98.7062 143.719 97.8262 144.809 96.5976 144.916C95.3691 145.024 94.3133 144.103 94.2058 142.875L92.3688 121.878C92.118 119.012 96.5109 118.627 96.7617 121.494L98.5987 142.49ZM86.4279 142.73C87.1134 144.133 86.1738 145.828 84.6475 145.962C83.7912 146.037 82.8894 145.59 82.4794 144.763L78.1401 136.327L74.7896 136.621L75.4801 144.513C75.7309 147.38 71.3007 147.767 71.0499 144.901L69.213 123.904C69.1022 122.638 70.0227 121.582 71.2512 121.475L78.2873 120.859C86.6636 120.126 89.7176 131.451 82.5893 135.301L86.4279 142.73ZM64.8329 145.444C64.9403 146.673 64.0603 147.763 62.8318 147.87C61.6033 147.978 60.5474 147.057 60.4399 145.829L58.603 124.832C58.3522 121.966 62.7451 121.581 62.9959 124.448L64.8329 145.444ZM52.3487 125.379L54.1856 146.376C54.4364 149.243 50.0435 149.627 49.7927 146.76L49.0664 138.458L37.9725 139.429L38.6988 147.731C38.9496 150.597 34.5194 150.985 34.2686 148.119L32.4317 127.122C32.1809 124.255 36.611 123.868 36.8618 126.734L37.5849 134.999L48.6788 134.028L47.9558 125.764C47.705 122.897 52.0979 122.513 52.3487 125.379ZM140.489 109.34L131.778 110.102C130.549 110.21 129.456 109.293 129.348 108.064L128.046 93.1729C127.938 91.9444 128.859 90.8885 130.087 90.781L138.799 90.0189C141.628 89.7713 142.015 94.2015 139.186 94.449L132.671 95.019L132.935 98.0345L139.45 97.4645C142.279 97.2169 142.667 101.647 139.838 101.895L133.323 102.465L133.586 105.48L140.101 104.91C142.931 104.663 143.318 109.093 140.489 109.34ZM120.088 111.125C119.157 111.207 118.249 110.686 117.87 109.781L115.409 103.957L113.511 104.123L113.973 109.409C114.224 112.276 109.794 112.663 109.543 109.797L108.237 94.8684L108.231 94.794L108.227 94.7567L108.255 94.6418L108.248 94.5673L108.245 94.5301L108.238 94.4556L108.272 94.4152L108.266 94.3407L108.263 94.3035L108.297 94.263L108.29 94.1885L108.324 94.148L108.321 94.1108L108.348 93.9959L108.382 93.9554L108.413 93.8777L108.41 93.8405L108.478 93.7595L108.505 93.6445L108.539 93.6041L108.573 93.5636L108.607 93.5231L108.641 93.4826L108.672 93.4049L108.706 93.3644L108.702 93.3272L108.736 93.2867C108.811 93.2802 109.649 92.5691 110.245 92.517L115.978 92.0154C122.158 91.4748 124.742 99.5765 119.778 102.862L121.956 108.036C122.526 109.411 121.54 110.998 120.088 111.125ZM97.2859 102.616C95.5362 102.769 94.2709 100.742 95.1896 99.236L98.1492 94.4755C99.663 92.0548 103.431 94.3886 101.917 96.8093L98.9575 101.57C98.5968 102.164 97.956 102.558 97.2859 102.616ZM87.4237 109.519C90.2902 109.268 90.6406 113.701 87.8113 113.949L79.0999 114.711C77.8714 114.819 76.8155 113.898 76.708 112.67L75.4052 97.7783C75.2977 96.5498 76.181 95.4972 77.4095 95.3897L86.1209 94.6276C88.9874 94.3768 89.375 98.8069 86.5084 99.0577L79.9935 99.6277L80.2574 102.643L86.7723 102.073C89.6388 101.822 89.9892 106.256 87.1599 106.503L80.6449 107.073L80.9088 110.089L87.4237 109.519ZM69.2728 99.2902L63.3162 114.817C62.6404 116.526 60.2951 116.731 59.3328 115.165L53.0986 104.794L48.76 116.09C48.1215 117.796 45.7017 118.008 44.7766 116.439L36.2143 102.182C34.7271 99.7617 38.5006 97.4433 39.9911 99.9013L46.2253 110.272L50.6011 98.9731C51.2428 97.3039 53.6254 97.0954 54.5473 98.6278L60.7815 108.999L65.12 97.7028C66.1643 95.0606 70.3138 96.6107 69.2728 99.2902Z" fill="#FFE4AF"/>
<path id="Vector_4" fill-rule="evenodd" clip-rule="evenodd" d="M74.4019 132.191L79.2043 131.77C83.4856 131.396 82.9188 124.918 78.6376 125.293L73.8352 125.713L74.4019 132.191Z" fill="#FFE4AF"/>
<path id="Vector_5" fill-rule="evenodd" clip-rule="evenodd" d="M112.866 96.7517L113.127 99.73L116.514 99.4336C118.623 99.099 118.338 96.2729 116.365 96.4455L112.866 96.7517Z" fill="#FFE4AF"/>
</g>
<path id="Vector_6" fill-rule="evenodd" clip-rule="evenodd" d="M130.813 67.3469L142.503 66.3242C141.952 60.0327 143.207 61.0858 136.171 61.7013C129.209 62.3104 130.263 61.0554 130.813 67.3469Z" fill="#FF3131"/>
<path id="Vector_7" fill-rule="evenodd" clip-rule="evenodd" d="M41.8379 75.1313C41.2874 68.8397 42.5052 69.8961 35.5064 70.5084C28.5447 71.1175 29.5606 69.8657 30.111 76.1572L41.8379 75.1313Z" fill="#FF3131"/>
<path id="Vector_8" fill-rule="evenodd" clip-rule="evenodd" d="M71.3789 23.0294C71.8903 28.8742 77.0724 33.2225 82.9544 32.7079C88.7992 32.1966 93.1475 27.0145 92.6362 21.1697C92.1248 15.3249 86.9427 10.9766 81.0979 11.4879C75.2159 12.0025 70.8676 17.1846 71.3789 23.0294Z" fill="#58535A"/>
</g>
</g>
<defs>
<clipPath id="clip0_87_1406">
<rect width="162" height="162" fill="white" transform="translate(0 14.1191) rotate(-5)"/>
</clipPath>
</defs>
</svg>
