<svg width="109" height="109" viewBox="0 0 109 109" fill="none" xmlns="http://www.w3.org/2000/svg">
<path fill-rule="evenodd" clip-rule="evenodd" d="M77.8415 36.8293C78.9436 38.0598 80.3775 38.7026 82.029 38.7026H87.3381C88.9896 38.7026 90.4231 38.0598 91.5068 36.8477L91.5999 36.755L91.6708 36.6822L97.0355 31.3189C98.541 29.8144 101 29.8144 102.509 31.3189L107.871 36.6822C109.376 38.1885 109.376 40.6488 107.871 42.1544L102.509 47.5184C101.001 49.0248 98.5414 49.0248 97.0355 47.5184L91.562 42.0448L91.5432 42.0084C91.5256 42.0084 91.5256 42.0084 91.5256 41.9904C90.4235 40.7779 88.9896 40.1163 87.3381 40.1163H82.029C80.3775 40.1163 78.944 40.7779 77.8415 41.9904C77.7882 42.0448 77.7503 42.0996 77.6955 42.1544L72.3331 47.5184C70.8275 49.0248 68.3651 49.0248 66.8596 47.5184L61.4956 42.1544C59.9901 40.6491 59.9901 38.1889 61.4956 36.6822L66.8596 31.3189C68.3658 29.8144 70.8272 29.8144 72.3331 31.3189L77.7139 36.6822L77.769 36.755L77.8246 36.8113C77.8246 36.8293 77.8415 36.8293 77.8415 36.8293Z" fill="#9D9E9E"/>
<path fill-rule="evenodd" clip-rule="evenodd" d="M38.7048 21.6776C38.7048 20.0253 38.0628 18.5918 36.833 17.4893C36.7775 17.4337 36.7223 17.3804 36.6668 17.3425L31.3231 11.9807C29.7992 10.4736 29.7992 8.01263 31.3231 6.48904L36.6668 1.14297C38.1915 -0.380991 40.6524 -0.380991 42.1583 1.14297L47.5211 6.48904C49.0274 8.01225 49.0274 10.4733 47.5211 11.9807L42.1583 17.3425C42.1032 17.3804 42.0476 17.4337 41.9917 17.4893C40.7624 18.5914 40.1203 20.0253 40.1203 21.6776V26.9862C40.1203 28.6193 40.7624 30.0705 41.9917 31.1723C42.0476 31.2094 42.1032 31.2642 42.1583 31.3198L47.5211 36.6831C49.0274 38.1894 49.0274 40.6497 47.5211 42.1553L42.1583 47.5193C40.6528 49.0257 38.1919 49.0257 36.6668 47.5193L31.3231 42.1553C29.7992 40.6501 29.7992 38.1898 31.3231 36.6831L36.6668 31.3198C36.7223 31.2642 36.7775 31.2094 36.833 31.1723C38.0628 30.0709 38.7048 28.6193 38.7048 26.9862V21.6776Z" fill="#00A0E3"/>
<path fill-rule="evenodd" clip-rule="evenodd" d="M42.0653 83.9746C43.7194 83.9746 45.1529 83.3332 46.2535 82.1012C46.3087 82.0479 46.3466 81.992 46.3999 81.9541L51.7638 76.5927C53.2693 75.0848 55.7314 75.0848 57.2373 76.5927L62.5997 81.9541C64.1053 83.4604 64.1053 85.9222 62.5997 87.4282L57.2373 92.7904C55.7318 94.2982 53.2697 94.2982 51.7638 92.7904L46.3999 87.4282C46.3466 87.3722 46.3087 87.3167 46.2535 87.2634C45.1533 86.0314 43.7194 85.3901 42.0653 85.3901H36.7588C35.1057 85.3901 33.6745 86.0314 32.5713 87.2634C32.5165 87.3167 32.4786 87.3722 32.4249 87.4282L27.0614 92.7904C25.5558 94.2982 23.0941 94.2982 21.5875 92.7904L16.2254 87.4282C14.7199 85.9226 14.7199 83.4608 16.2254 81.9541L21.5875 76.5927C23.0938 75.0848 25.5555 75.0848 27.0614 76.5927L32.4249 81.9541C32.4786 81.992 32.5165 82.0479 32.5713 82.1012C33.6741 83.3332 35.1057 83.9746 36.7588 83.9746H42.0653Z" fill="#00A0E3"/>
<path fill-rule="evenodd" clip-rule="evenodd" d="M8.53035 51.8532C8.53035 50.1997 7.88791 48.7677 6.65781 47.6655C6.6019 47.6096 6.54711 47.5732 6.4912 47.5184L1.12915 42.1544C-0.376383 40.6491 -0.376383 38.1889 1.12915 36.6822L6.4912 31.3189C7.99898 29.8144 10.4592 29.8144 11.9651 31.3189L17.3286 36.6822C18.8342 38.1885 18.8342 40.6488 17.3286 42.1544L11.9651 47.5184C11.9084 47.5732 11.8739 47.6096 11.8187 47.6655C10.5868 48.7673 9.94469 50.1997 9.94469 51.8532V57.1613C9.94469 58.8129 10.5868 60.2464 11.8187 61.3474C11.8739 61.403 11.9279 61.4401 11.9651 61.496L17.3286 66.8582C17.3823 66.9134 17.4378 66.9697 17.475 67.0234C18.5771 68.2366 20.0271 68.8779 21.6625 68.8779H26.9697C28.6231 68.8779 30.0742 68.2366 31.1576 67.0234C31.2124 66.9697 31.2679 66.9134 31.3238 66.8582L36.6675 61.496C38.1922 59.9882 40.6531 59.9882 42.159 61.496L47.5218 66.8582C49.0281 68.3638 49.0281 70.8256 47.5218 72.3315L42.159 77.6937C40.6535 79.1993 38.1926 79.1993 36.6675 77.6937L31.3238 72.3315C31.2679 72.2764 31.2124 72.2385 31.1576 72.1852C30.0746 70.9532 28.6231 70.3118 26.9697 70.3118H21.6625C20.0271 70.3118 18.5775 70.9532 17.475 72.1852C17.4378 72.2385 17.3823 72.2764 17.3286 72.3315L11.9651 77.6937C10.4595 79.1993 7.99711 79.1993 6.4912 77.6937L1.12915 72.3315C-0.376383 70.826 -0.376383 68.3642 1.12915 66.8582L6.4912 61.496C6.54711 61.4401 6.6019 61.403 6.65781 61.3474C7.88791 60.2468 8.53035 58.8129 8.53035 57.1613V51.8532Z" fill="#9D9E9E"/>
<path fill-rule="evenodd" clip-rule="evenodd" d="M53.8013 36.7554C53.8013 35.1214 53.1405 33.6706 51.9288 32.5685C51.8721 32.5306 51.8188 32.4769 51.7633 32.4214L46.3994 27.0573C44.8938 25.5521 44.8938 23.0918 46.3994 21.5859L51.7633 16.2218C53.2696 14.7159 55.7309 14.7159 57.2368 16.2218L62.5992 21.5859C64.1047 23.0915 64.1047 25.5517 62.5992 27.0573L57.2368 32.4214C57.1996 32.4769 57.1441 32.5306 57.0882 32.5685C55.8588 33.6703 55.2149 35.1214 55.2149 36.7554V42.0643C55.2149 43.7151 55.8588 45.1486 57.0882 46.2504C57.1441 46.3063 57.1996 46.3611 57.2368 46.399L62.5992 51.7597C64.1047 53.2668 64.1047 55.7285 62.5992 57.2521L57.2368 62.5986C55.7312 64.1225 53.2692 64.1225 51.7633 62.5986L46.3994 57.2521C44.8938 55.7289 44.8938 53.2671 46.3994 51.7597L51.7633 46.399C51.8188 46.3611 51.8721 46.3063 51.9288 46.2504C53.1405 45.149 53.8013 43.7151 53.8013 42.0643V36.7554Z" fill="#61606A"/>
<path fill-rule="evenodd" clip-rule="evenodd" d="M97.0352 61.496C98.5408 59.9881 101 59.9881 102.508 61.496L107.871 66.8582C109.376 68.3637 109.376 70.8255 107.871 72.3314L102.508 77.6937C101.001 79.1992 98.5411 79.1992 97.0352 77.6937L91.6706 72.3314C91.6173 72.2763 91.5801 72.2384 91.5253 72.1851C90.4232 70.9531 88.9893 70.3118 87.3378 70.3118H82.0287C80.3772 70.3118 78.9437 70.9531 77.8412 72.1851C77.7879 72.2384 77.75 72.2763 77.6952 72.3314L72.3328 77.6937C72.2765 77.7503 72.2214 77.8051 72.1666 77.8423C70.9361 78.9444 70.294 80.3761 70.294 82.0291V87.3358C70.294 88.99 70.9361 90.422 72.1666 91.5245C72.2214 91.5801 72.2765 91.6334 72.3328 91.6728L77.6952 97.0346C79.2004 98.5402 79.2004 101.002 77.6952 102.507L72.3328 107.871C70.8273 109.376 68.3648 109.376 66.8593 107.871L61.4954 102.507C61.4421 102.471 61.3862 102.416 61.349 102.36C60.248 101.13 58.7969 100.489 57.1615 100.489H51.8543C50.2013 100.489 48.77 101.13 47.6668 102.36C47.612 102.416 47.5553 102.471 47.5197 102.507L42.1569 107.871C40.6513 109.376 38.1904 109.376 36.6654 107.871L31.3217 102.507C29.7978 101.002 29.7978 98.5405 31.3217 97.0346L36.6654 91.6728C38.19 90.1649 40.651 90.1649 42.1569 91.6728L47.5197 97.0346C47.5553 97.0901 47.612 97.146 47.6668 97.1993C48.7697 98.4313 50.2013 99.0727 51.8543 99.0727H57.1615C58.7969 99.0727 60.2476 98.4313 61.349 97.1993C61.3862 97.146 61.4421 97.0901 61.4954 97.0346L66.8593 91.6728C66.8972 91.6334 66.9505 91.5801 67.006 91.5245C68.2357 90.4224 68.8793 88.99 68.8793 87.3358V82.0291C68.8793 80.3761 68.2357 78.9448 67.006 77.8423C66.9505 77.8051 66.8972 77.7503 66.8593 77.6937L61.4954 72.3314C59.9898 70.8259 59.9898 68.3641 61.4954 66.8582L66.8593 61.496C68.3645 59.9881 70.8269 59.9881 72.3328 61.496L77.6952 66.8582C77.75 66.9133 77.7879 66.9696 77.8412 67.0233C78.9433 68.2365 80.3772 68.8779 82.0287 68.8779H87.3378C88.9893 68.8779 90.4228 68.2365 91.5253 67.0233C91.5801 66.9696 91.6173 66.9133 91.6706 66.8582L97.0352 61.496Z" fill="#61606A"/>
<path fill-rule="evenodd" clip-rule="evenodd" d="M66.86 1.14334C68.3652 -0.362234 70.8276 -0.362234 72.3335 1.14334L77.696 6.48941C79.2011 8.01262 79.2011 10.4736 77.696 11.9811L72.3335 17.3429C70.828 18.8489 68.3656 18.8489 66.86 17.3429L61.4961 11.9811C59.9906 10.474 59.9906 8.013 61.4961 6.48941L66.86 1.14334Z" fill="#9D9E9E"/>
<path fill-rule="evenodd" clip-rule="evenodd" d="M81.9378 16.2223C83.4433 14.7163 85.9042 14.7163 87.4285 16.2223L92.7737 21.5864C94.28 23.092 94.28 25.5522 92.7737 27.0578L87.4285 32.4219C85.9046 33.9282 83.4437 33.9282 81.9378 32.4219L76.5749 27.0578C75.0694 25.5526 75.0694 23.0923 76.5749 21.5864L81.9378 16.2223Z" fill="#00A0E3"/>
<path fill-rule="evenodd" clip-rule="evenodd" d="M81.9378 46.3986C83.4433 44.8922 85.9042 44.8922 87.4285 46.3986L92.7737 51.7593C94.28 53.2664 94.28 55.7281 92.7737 57.2517L87.4285 62.5981C85.9046 64.1221 83.4437 64.1221 81.9378 62.5981L76.5749 57.2517C75.0694 55.7285 75.0694 53.2667 76.5749 51.7593L81.9378 46.3986Z" fill="#00A0E3"/>
<path fill-rule="evenodd" clip-rule="evenodd" d="M81.9378 76.5927C83.4433 75.0848 85.9042 75.0848 87.4285 76.5927L92.7737 81.9549C94.28 83.4604 94.28 85.9222 92.7737 87.4282L87.4285 92.7904C85.9046 94.2982 83.4437 94.2982 81.9378 92.7904L76.5749 87.4282C75.0694 85.9226 75.0694 83.4608 76.5749 81.9549L81.9378 76.5927Z" fill="#9D9E9E"/>
<path fill-rule="evenodd" clip-rule="evenodd" d="M21.5877 16.2223C23.094 14.7163 25.5557 14.7163 27.0616 16.2223L32.4252 21.5864C33.9307 23.092 33.9307 25.5522 32.4252 27.0578L27.0616 32.4219C25.5561 33.9282 23.0944 33.9282 21.5877 32.4219L16.2257 27.0578C14.7201 25.5526 14.7201 23.0923 16.2257 21.5864L21.5877 16.2223Z" fill="#61606A"/>
<path fill-rule="evenodd" clip-rule="evenodd" d="M21.5877 46.3986C23.094 44.8922 25.5557 44.8922 27.0616 46.3986L32.4252 51.7593C33.9307 53.2664 33.9307 55.7281 32.4252 57.2517L27.0616 62.5981C25.5561 64.1221 23.0944 64.1221 21.5877 62.5981L16.2257 57.2517C14.7201 55.7285 14.7201 53.2667 16.2257 51.7593L21.5877 46.3986Z" fill="#61606A"/>
</svg>
