<svg width="337" height="79" viewBox="0 0 337 79" fill="none" xmlns="http://www.w3.org/2000/svg">
<path fill-rule="evenodd" clip-rule="evenodd" d="M56.5762 26.6758C57.3694 27.5424 58.4013 27.9952 59.5898 27.9952H63.4106C64.5991 27.9952 65.6308 27.5424 66.4107 26.6887L66.4777 26.6235L66.5287 26.5722L70.3895 22.7947C71.473 21.7351 73.243 21.7351 74.3283 22.7947L78.1878 26.5722C79.2707 27.6331 79.2707 29.3659 78.1878 30.4263L74.3283 34.2043C73.2432 35.2652 71.4733 35.2652 70.3895 34.2043L66.4504 30.3491L66.4369 30.3235C66.4242 30.3235 66.4242 30.3235 66.4242 30.3108C65.631 29.4568 64.5991 28.9909 63.4106 28.9909H59.5898C58.4013 28.9909 57.3696 29.4568 56.5762 30.3108C56.5378 30.3491 56.5106 30.3877 56.4711 30.4263L52.612 34.2043C51.5285 35.2652 49.7563 35.2652 48.6729 34.2043L44.8126 30.4263C43.7291 29.3662 43.7291 27.6334 44.8126 26.5722L48.6729 22.7947C49.7569 21.7351 51.5282 21.7351 52.612 22.7947L56.4844 26.5722L56.5241 26.6235L56.564 26.6631C56.564 26.6758 56.5762 26.6758 56.5762 26.6758Z" fill="#C05830"/>
<path fill-rule="evenodd" clip-rule="evenodd" d="M27.9998 15.5957C27.9998 14.407 27.5479 13.3757 26.6824 12.5824C26.6433 12.5425 26.6045 12.5042 26.5654 12.4769L22.8044 8.61938C21.7319 7.53513 21.7319 5.76459 22.8044 4.66846L26.5654 0.822298C27.6385 -0.274099 29.3705 -0.274099 30.4304 0.822298L34.2049 4.66846C35.265 5.76432 35.265 7.53486 34.2049 8.61938L30.4304 12.4769C30.3916 12.5042 30.3525 12.5425 30.3132 12.5824C29.4479 13.3754 28.996 14.407 28.996 15.5957V19.4149C28.996 20.5898 29.4479 21.6339 30.3132 22.4265C30.3525 22.4533 30.3916 22.4927 30.4304 22.5326L34.2049 26.3912C35.265 27.4749 35.265 29.2449 34.2049 30.3281L30.4304 34.1872C29.3708 35.2709 27.6388 35.2709 26.5654 34.1872L22.8044 30.3281C21.7319 29.2452 21.7319 27.4752 22.8044 26.3912L26.5654 22.5326C26.6045 22.4927 26.6433 22.4533 26.6824 22.4265C27.5479 21.6341 27.9998 20.5898 27.9998 19.4149V15.5957Z" fill="white"/>
<path fill-rule="evenodd" clip-rule="evenodd" d="M30.4091 60.9951C31.5995 60.9951 32.6312 60.5434 33.4233 59.6758C33.463 59.6383 33.4903 59.5989 33.5286 59.5722L37.3889 55.7964C38.4725 54.7345 40.2444 54.7345 41.3281 55.7964L45.1874 59.5722C46.2709 60.633 46.2709 62.3667 45.1874 63.4273L41.3281 67.2036C40.2446 68.2655 38.4727 68.2655 37.3889 67.2036L33.5286 63.4273C33.4903 63.3879 33.463 63.3488 33.4233 63.3113C32.6315 62.4436 31.5995 61.992 30.4091 61.992H26.5901C25.4005 61.992 24.3704 62.4436 23.5764 63.3113C23.537 63.3488 23.5097 63.3879 23.4711 63.4273L19.6111 67.2036C18.5275 68.2655 16.7559 68.2655 15.6716 67.2036L11.8126 63.4273C10.7291 62.367 10.7291 60.6333 11.8126 59.5722L15.6716 55.7964C16.7556 54.7345 18.5273 54.7345 19.6111 55.7964L23.4711 59.5722C23.5097 59.5989 23.537 59.6383 23.5764 59.6758C24.3701 60.5434 25.4005 60.9951 26.5901 60.9951H30.4091Z" fill="#C05830"/>
<path fill-rule="evenodd" clip-rule="evenodd" d="M6.13675 37.5903C6.13675 36.4003 5.67457 35.3697 4.78964 34.5765C4.74942 34.5363 4.71 34.5101 4.66978 34.4706L0.812312 30.6102C-0.270771 29.5269 -0.270771 27.7563 0.812312 26.672L4.66978 22.812C5.75448 21.7293 7.52434 21.7293 8.6077 22.812L12.4662 26.672C13.5493 27.756 13.5493 29.5266 12.4662 30.6102L8.6077 34.4706C8.56693 34.5101 8.5421 34.5363 8.50241 34.5765C7.61613 35.3694 7.15423 36.4003 7.15423 37.5903V41.4105C7.15423 42.5991 7.61613 43.6308 8.50241 44.4232C8.5421 44.4631 8.58097 44.4899 8.6077 44.5301L12.4662 48.3892C12.5048 48.4289 12.5448 48.4694 12.5715 48.508C13.3644 49.3812 14.4075 49.8427 15.584 49.8427H19.4021C20.5915 49.8427 21.6355 49.3812 22.4148 48.508C22.4543 48.4694 22.4942 48.4289 22.5344 48.3892L26.3787 44.5301C27.4755 43.4449 29.2459 43.4449 30.3293 44.5301L34.1873 48.3892C35.2709 49.4727 35.2709 51.2444 34.1873 52.3282L30.3293 56.1873C29.2462 57.2709 27.4758 57.2709 26.3787 56.1873L22.5344 52.3282C22.4942 52.2885 22.4543 52.2613 22.4148 52.2229C21.6357 51.3363 20.5915 50.8747 19.4021 50.8747H15.584C14.4075 50.8747 13.3647 51.3363 12.5715 52.2229C12.5448 52.2613 12.5048 52.2885 12.4662 52.3282L8.6077 56.1873C7.52461 57.2709 5.75313 57.2709 4.66978 56.1873L0.812312 52.3282C-0.270771 51.2447 -0.270771 49.473 0.812312 48.3892L4.66978 44.5301C4.71 44.4899 4.74942 44.4631 4.78964 44.4232C5.67457 43.631 6.13675 42.5991 6.13675 41.4105V37.5903Z" fill="white"/>
<path fill-rule="evenodd" clip-rule="evenodd" d="M39.0084 26.5852C39.0084 25.4097 38.543 24.3659 37.6896 23.573C37.6497 23.5457 37.6122 23.5071 37.573 23.4671L33.7953 19.608C32.7349 18.5251 32.7349 16.7551 33.7953 15.6717L37.573 11.8126C38.6339 10.7291 40.3674 10.7291 41.428 11.8126L45.2047 15.6717C46.2651 16.7549 46.2651 18.5249 45.2047 19.608L41.428 23.4671C41.4018 23.5071 41.3627 23.5457 41.3234 23.573C40.4575 24.3656 40.004 25.4097 40.004 26.5852V30.4046C40.004 31.5922 40.4575 32.6236 41.3234 33.4162C41.3627 33.4565 41.4018 33.4959 41.428 33.5231L45.2047 37.3798C46.2651 38.4641 46.2651 40.2352 45.2047 41.3313L41.428 45.1777C40.3677 46.2741 38.6337 46.2741 37.573 45.1777L33.7953 41.3313C32.7349 40.2354 32.7349 38.4643 33.7953 37.3798L37.573 33.5231C37.6122 33.4959 37.6497 33.4565 37.6896 33.4162C38.543 32.6238 39.0084 31.5922 39.0084 30.4046V26.5852Z" fill="#C05830"/>
<path fill-rule="evenodd" clip-rule="evenodd" d="M70.3478 44.8138C71.4365 43.7287 73.2151 43.7287 74.3057 44.8138L78.1839 48.6727C79.272 49.7562 79.272 51.5278 78.1839 52.6116L74.3057 56.4705C73.2153 57.5539 71.4368 57.5539 70.3478 56.4705L66.4683 52.6116C66.4297 52.5719 66.4029 52.5446 66.3632 52.5062C65.5662 51.6196 64.5293 51.1581 63.335 51.1581H59.4957C58.3014 51.1581 57.2647 51.6196 56.4675 52.5062C56.4289 52.5446 56.4015 52.5719 56.3619 52.6116L52.484 56.4705C52.4433 56.5112 52.4034 56.5507 52.3638 56.5774C51.474 57.3706 51.0097 58.4009 51.0097 59.5905V63.4094C51.0097 64.5998 51.474 65.6304 52.3638 66.4238C52.4034 66.4638 52.4433 66.5021 52.484 66.5305L56.3619 70.3891C57.4504 71.4726 57.4504 73.2439 56.3619 74.3277L52.484 78.1874C51.3953 79.2709 49.6146 79.2709 48.5258 78.1874L44.6469 74.3277C44.6083 74.3015 44.5679 74.2615 44.541 74.2218C43.7448 73.3366 42.6954 72.875 41.5128 72.875H37.6748C36.4794 72.875 35.4444 73.3366 34.6466 74.2218C34.607 74.2615 34.566 74.3015 34.5402 74.3277L30.6621 78.1874C29.5733 79.2709 27.7937 79.2709 26.6908 78.1874L22.8265 74.3277C21.7245 73.2442 21.7245 71.4729 22.8265 70.3891L26.6908 66.5305C27.7934 65.4454 29.5731 65.4454 30.6621 66.5305L34.5402 70.3891C34.566 70.4291 34.607 70.4693 34.6466 70.5077C35.4441 71.3943 36.4794 71.8558 37.6748 71.8558H41.5128C42.6954 71.8558 43.7445 71.3943 44.541 70.5077C44.5679 70.4693 44.6083 70.4291 44.6469 70.3891L48.5258 66.5305C48.5532 66.5021 48.5918 66.4638 48.6319 66.4238C49.5212 65.6306 49.9866 64.5998 49.9866 63.4094V59.5905C49.9866 58.4009 49.5212 57.3708 48.6319 56.5774C48.5918 56.5507 48.5532 56.5112 48.5258 56.4705L44.6469 52.6116C43.5581 51.5281 43.5581 49.7565 44.6469 48.6727L48.5258 44.8138C49.6143 43.7287 51.395 43.7287 52.484 44.8138L56.3619 48.6727C56.4015 48.7124 56.4289 48.7529 56.4675 48.7916C57.2645 49.6647 58.3014 50.1262 59.4957 50.1262H63.335C64.5293 50.1262 65.566 49.6647 66.3632 48.7916C66.4029 48.7529 66.4297 48.7124 66.4683 48.6727L70.3478 44.8138Z" fill="white"/>
<path fill-rule="evenodd" clip-rule="evenodd" d="M48.5731 0.795275C49.6332 -0.265092 51.3675 -0.265092 52.4281 0.795275L56.2049 4.56048C57.265 5.63326 57.265 7.36654 56.2049 8.42822L52.4281 12.2045C51.3678 13.2652 49.6335 13.2652 48.5731 12.2045L44.7953 8.42822C43.7349 7.3668 43.7349 5.63353 44.7953 4.56048L48.5731 0.795275Z" fill="white"/>
<path fill-rule="evenodd" clip-rule="evenodd" d="M59.5724 11.7954C60.6328 10.7349 62.366 10.7349 63.4396 11.7954L67.2043 15.5732C68.2652 16.6336 68.2652 18.3662 67.2043 19.4266L63.4396 23.2044C62.3663 24.2652 60.633 24.2652 59.5724 23.2044L55.7953 19.4266C54.7349 18.3665 54.7349 16.6338 55.7953 15.5732L59.5724 11.7954Z" fill="white"/>
<path fill-rule="evenodd" clip-rule="evenodd" d="M59.5724 33.7951C60.6328 32.735 62.366 32.735 63.4396 33.7951L67.2043 37.5677C68.2652 38.6283 68.2652 40.3608 67.2043 41.433L63.4396 45.1956C62.3663 46.2681 60.633 46.2681 59.5724 45.1956L55.7953 41.433C54.7349 40.3611 54.7349 38.6286 55.7953 37.5677L59.5724 33.7951Z" fill="white"/>
<path fill-rule="evenodd" clip-rule="evenodd" d="M59.5724 55.7964C60.6328 54.7345 62.366 54.7345 63.4396 55.7964L67.2043 59.5727C68.2652 60.633 68.2652 62.3667 67.2043 63.4273L63.4396 67.2036C62.3663 68.2655 60.633 68.2655 59.5724 67.2036L55.7953 63.4273C54.7349 62.367 54.7349 60.6333 55.7953 59.5727L59.5724 55.7964Z" fill="#C05830"/>
<path fill-rule="evenodd" clip-rule="evenodd" d="M15.5718 11.7954C16.6327 10.7349 18.3665 10.7349 19.4271 11.7954L23.2047 15.5732C24.2651 16.6336 24.2651 18.3662 23.2047 19.4266L19.4271 23.2044C18.3668 24.2652 16.633 24.2652 15.5718 23.2044L11.7953 19.4266C10.7349 18.3665 10.7349 16.6338 11.7953 15.5732L15.5718 11.7954Z" fill="#C05830"/>
<path fill-rule="evenodd" clip-rule="evenodd" d="M15.5718 33.7951C16.6327 32.735 18.3665 32.735 19.4271 33.7951L23.2047 37.5677C24.2651 38.6283 24.2651 40.3608 23.2047 41.433L19.4271 45.1956C18.3668 46.2681 16.633 46.2681 15.5718 45.1956L11.7953 41.433C10.7349 40.3611 10.7349 38.6286 11.7953 37.5677L15.5718 33.7951Z" fill="#C05830"/>
<path d="M111.078 29.8204H102.525V20.2096C102.503 18.7059 100.883 17.1683 98.5531 17.1683H102.525H111.292C115.876 17.1683 119.392 19.0418 119.392 23.4947C119.392 27.858 116.213 29.8204 111.078 29.8204H111.078ZM112.279 11H90C92.3145 11 93.9295 12.5192 93.9727 14.0226V51.7187H102.526V35.9889H112.003C120.952 35.9889 128.062 31.8717 128.062 23.3368C128.062 15.7183 121.663 11.0002 112.279 11.0002L112.279 11Z" fill="white"/>
<path d="M325.962 30.0446V24.4386H318.87H315.134C316.599 24.4386 317.625 25.3603 317.746 26.2779C317.785 28.0817 317.785 30.1491 317.785 32.6582V54.714H325.962V41.0199C325.962 32.9244 330.149 30.0252 337 30.0597V24.4575C331.291 24.5277 327.542 26.3665 325.962 30.0446Z" fill="white"/>
<path d="M141.039 30.0446V24.4386H133.948H130.212C131.676 24.4386 132.703 25.3603 132.822 26.2779C132.862 28.0817 132.862 30.1491 132.862 32.6582V54.714H141.039V41.0199C141.039 32.9244 145.227 30.0252 152.077 30.0597V24.4575C146.368 24.5277 142.62 26.3665 141.039 30.0446Z" fill="white"/>
<path d="M223.358 45.1029C222.096 50.2108 218.144 55.4224 208.562 55.4224C198.429 55.4224 192.901 49.0775 192.901 39.7825C192.901 30.9615 198.765 23.7338 208.998 23.7338C219.841 23.7338 223.082 30.6955 223.358 34.2656H215.34C214.667 31.5983 212.91 29.5664 208.838 29.5664C203.982 29.5664 201.238 33.3293 201.238 39.5318C201.238 46.1283 204.038 49.6444 208.739 49.6444C212.298 49.6444 214.272 47.8202 215.301 45.1029H223.358Z" fill="white"/>
<path d="M252.214 36.44C252.154 32.4122 250.159 29.1079 245.201 29.1079C240.224 29.1079 238.13 32.18 237.695 36.44H252.214ZM237.5 41.0896C237.518 45.6661 240.085 49.5903 245.101 49.5903C249.487 49.5903 250.81 47.8396 251.757 45.8777H259.973C258.733 49.6444 255.058 55.4224 244.885 55.4224C233.903 55.4224 229.242 47.8746 229.242 39.9763C229.242 30.646 234.554 23.734 245.238 23.734C256.618 23.734 260.43 31.3664 260.43 38.5453C260.43 39.5321 260.43 40.242 260.33 41.0899H237.5L237.5 41.0896Z" fill="white"/>
<path d="M304.767 36.44C304.708 32.4122 302.712 29.1079 297.753 29.1079C292.777 29.1079 290.683 32.18 290.248 36.44H304.767ZM290.054 41.0896C290.071 45.6661 292.638 49.5903 297.655 49.5903C302.04 49.5903 303.363 47.8396 304.311 45.8777H312.526C311.286 49.6444 307.611 55.4224 297.438 55.4224C286.456 55.4224 281.795 47.8746 281.795 39.9763C281.795 30.646 287.107 23.734 297.792 23.734C309.17 23.734 312.983 31.3664 312.983 38.5453C312.983 39.5321 312.983 40.242 312.884 41.0899H290.054L290.054 41.0896Z" fill="white"/>
<path d="M162.566 39.586C162.566 45.6846 165.663 49.5903 170.701 49.5903C175.836 49.5903 178.7 45.7543 178.7 39.621C178.7 33.1177 175.797 29.5664 170.583 29.5664C165.565 29.5664 162.566 33.0126 162.566 39.586ZM187.016 39.5163C187.016 48.5303 181.092 55.4224 170.484 55.4224C160.274 55.4224 154.229 48.7225 154.229 39.6554C154.229 30.45 160.351 23.7338 170.92 23.7338C180.678 23.7338 187.016 30.0252 187.016 39.5163Z" fill="white"/>
<path d="M267.74 24.4388H265.09C266.649 24.4388 267.717 25.4837 267.717 26.4902C267.74 26.4902 267.74 26.4902 267.74 26.4902V56.0587C267.74 59.664 266.968 60.9554 263.59 60.9554C263.271 60.9554 262.919 60.9554 262.582 60.9364V66.8764C263.293 66.9269 264.555 67 265.249 67C273.901 67 275.912 63.1993 275.912 54.6292V24.4388H267.74Z" fill="white"/>
<path d="M267.739 14.3026H267.717H265.09C266.624 14.3026 267.683 15.3115 267.717 16.3063V16.353V21.6158H275.912V20.1192V14.3026H267.739Z" fill="white"/>
</svg>
