<svg width="88" height="88" viewBox="0 0 88 88" fill="none" xmlns="http://www.w3.org/2000/svg">
<path d="M41.25 85.25C50.5207 79.351 58.1532 71.2083 63.4409 61.5758C68.7286 51.9434 71.5005 41.1325 71.5 30.1441V20.625C65.6107 20.6175 59.8211 19.1037 54.6819 16.2275C49.5427 13.3513 45.2246 9.20824 42.1383 4.19238L41.25 2.75L40.3617 4.19238C37.2754 9.20824 32.9573 13.3513 27.8181 16.2275C22.6789 19.1037 16.8893 20.6175 11 20.625V30.1441C10.9995 41.1325 13.7714 51.9434 19.0591 61.5758C24.3468 71.2083 31.9793 79.351 41.25 85.25Z" fill="#559B38"/>
<path d="M42.1383 4.19238L41.25 2.75L40.3617 4.19238C37.2754 9.20824 32.9573 13.3513 27.8181 16.2275C22.6789 19.1037 16.8893 20.6175 11 20.625V30.1441C11.0025 42.3328 14.4176 54.2773 20.8588 64.625H52.25C53.7087 64.625 55.1076 64.0455 56.1391 63.0141C57.1705 61.9826 57.75 60.5837 57.75 59.125V17.7375C51.2842 14.9239 45.8357 10.1967 42.1383 4.19238Z" fill="#6BC148"/>
<path d="M41.25 61.875C51.1221 61.875 59.125 53.8721 59.125 44C59.125 34.1279 51.1221 26.125 41.25 26.125C31.3779 26.125 23.375 34.1279 23.375 44C23.375 53.8721 31.3779 61.875 41.25 61.875Z" fill="#CCCCCC"/>
<path d="M60.5 31.625L56.375 27.5L38.5 45.375L34.375 41.25L30.25 45.375L36.1529 51.2779C36.4611 51.5861 36.827 51.8306 37.2298 51.9974C37.6325 52.1642 38.0641 52.25 38.5 52.25C38.9359 52.25 39.3675 52.1642 39.7702 51.9974C40.173 51.8306 40.5389 51.5861 40.8471 51.2779L60.5 31.625Z" fill="white"/>
<path d="M77 66H49.5V85.25H77V66Z" fill="#F3A845"/>
<path d="M49.5 66V81.125H68.75C69.844 81.125 70.8932 80.6904 71.6668 79.9168C72.4404 79.1432 72.875 78.094 72.875 77V66H49.5Z" fill="#EECC61"/>
<path d="M63.25 77C64.7688 77 66 75.7688 66 74.25C66 72.7312 64.7688 71.5 63.25 71.5C61.7312 71.5 60.5 72.7312 60.5 74.25C60.5 75.7688 61.7312 77 63.25 77Z" fill="white"/>
<path d="M63.25 49.5C60.3326 49.5 57.5347 50.6589 55.4718 52.7218C53.4089 54.7847 52.25 57.5826 52.25 60.5V66H57.75V60.5C57.75 59.0413 58.3295 57.6424 59.3609 56.6109C60.3924 55.5795 61.7913 55 63.25 55C64.7087 55 66.1076 55.5795 67.1391 56.6109C68.1705 57.6424 68.75 59.0413 68.75 60.5V66H74.25V60.5C74.25 57.5826 73.0911 54.7847 71.0282 52.7218C68.9653 50.6589 66.1674 49.5 63.25 49.5Z" fill="#A9A9A9"/>
<path d="M47.7896 59.1539C45.1274 60.3078 42.2082 60.7398 39.326 60.4061C36.4437 60.0725 33.7003 58.9851 31.3722 57.2536C29.0441 55.522 27.2134 53.2074 26.0647 50.543C24.916 47.8786 24.4898 44.9585 24.8291 42.077C25.1684 39.1954 26.2612 36.4542 27.9973 34.1294C29.7335 31.8047 32.0516 29.9786 34.7183 28.8352C37.385 27.6917 40.3059 27.2713 43.1868 27.6162C46.0677 27.9612 48.8068 29.0593 51.1281 30.8L38.5001 43.4308L35.3472 40.2779C35.0893 40.0201 34.7397 39.8753 34.3751 39.8753C34.0105 39.8753 33.6608 40.0201 33.4029 40.2779L29.2779 44.4029C29.0202 44.6608 28.8754 45.0104 28.8754 45.375C28.8754 45.7396 29.0202 46.0893 29.2779 46.3472L35.1808 52.25C36.0612 53.1303 37.2551 53.6249 38.5001 53.6249C39.745 53.6249 40.939 53.1303 41.8193 52.25L56.4466 37.6228C57.3054 39.6393 57.7487 41.8083 57.7501 44C57.75 44.8349 57.6875 45.6687 57.5631 46.4943L60.2814 46.9068C60.8724 43.0293 60.2585 39.0638 58.5228 35.5465L61.4722 32.5972C61.73 32.3393 61.8748 31.9896 61.8748 31.625C61.8748 31.2604 61.73 30.9108 61.4722 30.6529L57.3472 26.5279C57.0893 26.2701 56.7397 26.1253 56.3751 26.1253C56.0105 26.1253 55.6608 26.2701 55.4029 26.5279L53.0888 28.842C50.4114 26.7551 47.2294 25.4138 43.8659 24.9544C40.5025 24.495 37.0773 24.9339 33.9383 26.2265C30.7994 27.5191 28.0584 29.6193 25.9937 32.314C23.9289 35.0086 22.6141 38.2016 22.1826 41.5688C21.7512 44.9359 22.2184 48.3573 23.537 51.4855C24.8556 54.6136 26.9785 57.3371 29.6901 59.3794C32.4018 61.4217 35.6056 62.71 38.9762 63.1136C42.3468 63.5171 45.7642 63.0215 48.8813 61.677L47.7896 59.1539ZM56.3751 29.4443L58.5558 31.625L39.8751 50.3058C39.502 50.6542 39.0106 50.8481 38.5001 50.8481C37.9896 50.8481 37.4981 50.6542 37.1251 50.3058L32.1943 45.375L34.3751 43.1943L37.5279 46.3472C37.7858 46.6049 38.1355 46.7497 38.5001 46.7497C38.8647 46.7497 39.2143 46.6049 39.4722 46.3472L56.3751 29.4443Z" fill="black"/>
<path d="M77 64.625H75.625V60.5C75.6228 58.4077 75.0897 56.3502 74.0756 54.5201C73.0614 52.6901 71.5995 51.1473 69.8266 50.0362C71.8452 43.5984 72.8731 36.891 72.875 30.1441V20.625C72.875 20.2603 72.7301 19.9106 72.4722 19.6527C72.2144 19.3948 71.8647 19.25 71.5 19.25C65.8421 19.2623 60.2764 17.817 55.3393 15.0534C50.4022 12.2899 46.2602 8.30122 43.3125 3.47184L42.4256 2.02947C42.2938 1.84194 42.1188 1.68889 41.9154 1.58324C41.7119 1.47758 41.4861 1.42242 41.2569 1.42242C41.0276 1.42242 40.8018 1.47758 40.5984 1.58324C40.3949 1.68889 40.2199 1.84194 40.0881 2.02947L39.1875 3.47184C36.2397 8.30122 32.0977 12.2899 27.1607 15.0534C22.2236 17.817 16.6579 19.2623 11 19.25C10.6353 19.25 10.2856 19.3948 10.0277 19.6527C9.76984 19.9106 9.62498 20.2603 9.62498 20.625V30.1441C9.59592 41.3693 12.4139 52.4185 17.8155 62.2586C23.2171 72.0987 31.0259 80.4083 40.5116 86.4105C40.7323 86.5509 40.9884 86.6255 41.25 86.6255C41.5116 86.6255 41.7677 86.5509 41.9884 86.4105C44.1153 85.0528 46.1641 83.5765 48.125 81.9885V85.25C48.125 85.6146 48.2698 85.9644 48.5277 86.2222C48.7856 86.4801 49.1353 86.625 49.5 86.625H77C77.3646 86.625 77.7144 86.4801 77.9723 86.2222C78.2301 85.9644 78.375 85.6146 78.375 85.25V66C78.375 65.6353 78.2301 65.2856 77.9723 65.0277C77.7144 64.7698 77.3646 64.625 77 64.625ZM72.875 60.5V64.625H70.125V60.5C70.125 58.6766 69.4006 56.9279 68.1113 55.6386C66.822 54.3493 65.0733 53.625 63.25 53.625C61.4266 53.625 59.6779 54.3493 58.3886 55.6386C57.0993 56.9279 56.375 58.6766 56.375 60.5V64.625H53.625V60.5C53.625 57.9473 54.639 55.4991 56.4441 53.6941C58.2491 51.889 60.6973 50.875 63.25 50.875C65.8027 50.875 68.2508 51.889 70.0559 53.6941C71.8609 55.4991 72.875 57.9473 72.875 60.5ZM67.375 64.625H59.125V60.5C59.125 59.406 59.5596 58.3567 60.3332 57.5832C61.1068 56.8096 62.156 56.375 63.25 56.375C64.344 56.375 65.3932 56.8096 66.1668 57.5832C66.9404 58.3567 67.375 59.406 67.375 60.5V64.625ZM41.25 83.6137C32.36 77.8159 25.0613 69.8868 20.0181 60.5481C14.9749 51.2093 12.3475 40.7575 12.375 30.1441V21.9725C18.1767 21.7643 23.8397 20.1424 28.8719 17.2477C33.9042 14.3529 38.1533 10.273 41.25 5.36247C44.3467 10.273 48.5958 14.3529 53.628 17.2477C58.6602 20.1424 64.3233 21.7643 70.125 21.9725V30.1441C70.1233 36.4765 69.1788 42.7733 67.3227 48.8276C65.4587 48.1704 63.4642 47.9704 61.5068 48.2444C59.5495 48.5185 57.6865 49.2586 56.0747 50.4024C54.4629 51.5463 53.1493 53.0605 52.2445 54.8176C51.3396 56.5748 50.87 58.5235 50.875 60.5V64.625H49.5C49.1353 64.625 48.7856 64.7698 48.5277 65.0277C48.2698 65.2856 48.125 65.6353 48.125 66V78.375C45.9535 80.2736 43.6566 82.0238 41.25 83.6137ZM75.625 83.875H50.875V67.375H75.625V83.875Z" fill="black"/>
<path d="M61.875 78.122V81.125H64.625V78.122C65.5424 77.7976 66.3156 77.1594 66.808 76.3201C67.3004 75.4808 67.4801 74.4944 67.3156 73.5354C67.1511 72.5763 66.6528 71.7063 65.9088 71.0791C65.1648 70.4519 64.2231 70.1079 63.25 70.1079C62.2769 70.1079 61.3352 70.4519 60.5912 71.0791C59.8473 71.7063 59.349 72.5763 59.1844 73.5354C59.0199 74.4944 59.1997 75.4808 59.692 76.3201C60.1844 77.1594 60.9576 77.7976 61.875 78.122ZM63.25 72.875C63.522 72.875 63.7878 72.9556 64.0139 73.1067C64.24 73.2578 64.4163 73.4726 64.5203 73.7238C64.6244 73.9751 64.6516 74.2515 64.5986 74.5182C64.5455 74.785 64.4146 75.03 64.2223 75.2223C64.03 75.4146 63.785 75.5455 63.5183 75.5986C63.2515 75.6516 62.9751 75.6244 62.7238 75.5203C62.4726 75.4163 62.2578 75.24 62.1067 75.0139C61.9556 74.7878 61.875 74.5219 61.875 74.25C61.875 73.8853 62.0199 73.5356 62.2777 73.2777C62.5356 73.0199 62.8853 72.875 63.25 72.875Z" fill="black"/>
</svg>
