<svg width="88" height="88" viewBox="0 0 88 88" fill="none" xmlns="http://www.w3.org/2000/svg">
<g clip-path="url(#clip0_87_1276)">
<path d="M77.0431 86.7137H24.2348C22.7282 86.7137 21.5068 85.4924 21.5068 83.9857V7.34183C21.5068 5.83517 22.7282 4.61383 24.2348 4.61383H77.0431C78.5497 4.61383 79.7711 5.83517 79.7711 7.34183V83.9857C79.7711 85.4924 78.5497 86.7137 77.0431 86.7137Z" fill="#407093"/>
<path d="M77.0488 4.61383H76.2222V80.4427C76.2222 81.9461 75.0034 83.1648 73.4999 83.1648H21.5068V83.9914C21.5068 85.4948 22.7256 86.7137 24.2292 86.7137H77.0489C78.5523 86.7137 79.7713 85.4949 79.7713 83.9914V7.33616C79.7711 5.8326 78.5523 4.61383 77.0488 4.61383Z" fill="#365E7D"/>
<path d="M72.1145 72.3585H29.1633C28.6888 72.3585 28.304 71.9737 28.304 71.4991V15.0511C28.304 14.5765 28.6888 14.1917 29.1633 14.1917H72.1145C72.5891 14.1917 72.9739 14.5765 72.9739 15.0511V71.4991C72.9739 71.9738 72.5891 72.3585 72.1145 72.3585Z" fill="#F5F5F5"/>
<path d="M72.1163 14.1917H69.7779V68.305C69.7779 68.7787 69.3939 69.1625 68.9203 69.1625H28.304V71.5009C28.304 71.9745 28.6879 72.3583 29.1614 72.3583H72.1163C72.59 72.3583 72.9738 71.9744 72.9738 71.5009V15.0494C72.9739 14.5757 72.59 14.1917 72.1163 14.1917Z" fill="#F1F4F6"/>
<path d="M58.7209 9.56434C58.7209 14.0279 55.1026 17.6462 50.639 17.6462C46.1754 17.6462 42.5571 14.0279 42.5571 9.56434C42.5571 5.10075 46.1754 1.2865 50.639 1.2865C55.1025 1.28633 58.7209 5.10075 58.7209 9.56434Z" fill="#FFE07D"/>
<path d="M50.6389 1.28632C49.9738 1.28632 49.3279 1.37277 48.7095 1.53175C52.241 2.43943 54.8619 5.76589 54.8619 9.56433C54.8619 13.3626 52.241 16.5473 48.7095 17.4127C49.3279 17.5643 49.9738 17.6462 50.6389 17.6462C55.1025 17.6462 58.7208 14.0279 58.7208 9.56433C58.7208 5.10074 55.1024 1.28632 50.6389 1.28632Z" fill="#FFD064"/>
<path d="M35.9854 19.584L37.2076 20.531C37.4904 20.75 37.8853 20.75 38.1681 20.531L39.366 19.6029C39.6488 19.3839 40.0437 19.3839 40.3265 19.6029L41.5241 20.5308C41.8068 20.7498 42.2018 20.7498 42.4845 20.5308L43.6822 19.6029C43.9649 19.3839 44.3599 19.3839 44.6426 19.6029L45.8406 20.531C46.1233 20.75 46.5183 20.75 46.8008 20.531L47.9991 19.6027C48.2819 19.3837 48.6768 19.3837 48.9594 19.6027L50.1574 20.5308C50.4401 20.7498 50.8351 20.7498 51.1176 20.5308L52.3158 19.6025C52.5985 19.3835 52.9935 19.3835 53.276 19.6025L54.4742 20.5306C54.7569 20.7496 55.1519 20.7496 55.4346 20.5306L56.6321 19.6027C56.9148 19.3837 57.3098 19.3835 57.5925 19.6027L58.7907 20.531C59.0732 20.75 59.4682 20.75 59.7509 20.531L60.9498 19.6025C61.2325 19.3835 61.6273 19.3837 61.91 19.6025L63.1085 20.531C63.3911 20.75 63.786 20.75 64.0686 20.5312L65.2923 19.5838C65.5801 19.361 65.7485 19.0176 65.7485 18.6538V12.8509C65.7485 12.0082 65.0653 11.325 64.2226 11.325H37.0557C36.213 11.325 35.5298 12.0082 35.5298 12.8509V18.6543C35.5296 19.018 35.6979 19.3612 35.9854 19.584Z" fill="#FFD064"/>
<path d="M64.2224 11.325H59.1731C60.247 11.325 61.1177 12.1956 61.1177 13.2696V19.5063C61.3757 19.394 61.6797 19.4244 61.91 19.6029L63.1085 20.5313C63.3911 20.7503 63.786 20.7503 64.0686 20.5315L65.2924 19.5841C65.5801 19.3614 65.7485 19.018 65.7485 18.6541V12.8509C65.7483 12.0082 65.0651 11.325 64.2224 11.325Z" fill="#ECBE6B"/>
<path d="M30.9719 75.4091C43.5327 75.4091 53.7151 65.2266 53.7151 52.6659C53.7151 40.1052 43.5327 29.9227 30.9719 29.9227C18.4112 29.9227 8.22876 40.1052 8.22876 52.6659C8.22876 65.2266 18.4112 75.4091 30.9719 75.4091Z" fill="#F1F4F6"/>
<path d="M43.2903 33.5452C45.5821 37.0951 46.9128 41.3237 46.9128 45.8634C46.9128 58.4241 36.7304 68.6066 24.1696 68.6066C19.6299 68.6066 15.4012 67.276 11.8513 64.9842C15.9005 71.2564 22.951 75.4091 30.9721 75.4091C43.5327 75.4091 53.7153 65.2265 53.7153 52.6659C53.7153 44.6449 49.5626 37.5942 43.2903 33.5452Z" fill="#DFEAEF"/>
<path d="M30.972 56.1485C32.8954 56.1485 34.4546 54.5893 34.4546 52.6659C34.4546 50.7426 32.8954 49.1834 30.972 49.1834C29.0487 49.1834 27.4895 50.7426 27.4895 52.6659C27.4895 54.5893 29.0487 56.1485 30.972 56.1485Z" fill="#407093"/>
<path d="M32.3413 49.4636C32.5213 49.884 32.6215 50.3465 32.6215 50.8327C32.6215 52.7562 31.0622 54.3152 29.1389 54.3152C28.6527 54.3152 28.1902 54.215 27.7698 54.0351C28.3017 55.2777 29.5349 56.1486 30.9722 56.1486C32.8956 56.1486 34.4547 54.5894 34.4547 52.6661C34.4547 51.2287 33.5838 49.9955 32.3413 49.4636Z" fill="#365E7D"/>
<path d="M79.7712 60.5364C80.4815 60.5364 81.0575 59.9607 81.0575 59.2501V7.33614C81.0575 5.12566 79.2591 3.3275 77.0488 3.3275H57.7019C57.5656 3.16731 57.4259 3.0097 57.2782 2.85725C55.4955 1.01475 53.1377 0 50.639 0C48.1403 0 45.7825 1.01475 43.9998 2.85708C43.8524 3.00953 43.7125 3.16731 43.5762 3.32733H24.2291C22.0187 3.32733 20.2204 5.12548 20.2204 7.33597V31.1627C17.9412 32.3049 15.8359 33.819 13.9807 35.6742C13.4783 36.1768 13.4783 36.9911 13.9807 37.4935C14.4831 37.9957 15.2976 37.9957 15.7998 37.4935C19.8524 33.4409 25.2407 31.2089 30.9721 31.2089C42.8034 31.2089 52.4289 40.8344 52.4289 52.6656C52.4289 64.4968 42.8034 74.1223 30.9721 74.1223C19.1407 74.1223 9.51518 64.4971 9.51518 52.6659C9.51518 48.9392 10.4849 45.269 12.3197 42.052C12.6717 41.4348 12.4568 40.6491 11.8396 40.2973C11.2228 39.9453 10.4369 40.1601 10.0849 40.7773C8.02898 44.3817 6.94238 48.493 6.94238 52.6659C6.94238 62.0532 12.3539 70.1991 20.2204 74.1515V83.9915C20.2204 86.2018 22.0187 88 24.2291 88H77.0488C79.2591 88 81.0575 86.2018 81.0575 83.9915V65.2907C81.0575 64.5801 80.4815 64.0044 79.7712 64.0044C79.0608 64.0044 78.4848 64.5801 78.4848 65.2907V83.9915C78.4848 84.7834 77.8407 85.4272 77.049 85.4272H24.2291C23.4372 85.4272 22.7932 84.7832 22.7932 83.9915V75.2613C25.3474 76.1888 28.1016 76.6954 30.9721 76.6954C35.2191 76.6954 39.2114 75.5865 42.6773 73.645H51.2206C51.931 73.645 52.507 73.0692 52.507 72.3587C52.507 71.6482 51.931 71.0724 51.2206 71.0724H46.4009C51.6552 66.6609 55.0017 60.0475 55.0017 52.6659C55.0017 39.4161 44.2221 28.6364 30.9722 28.6364C30.5094 28.6364 30.0489 28.651 29.5905 28.6768V15.478H34.2434V18.6543C34.2434 19.4102 34.6002 20.1381 35.1976 20.6009L36.4196 21.5476C37.1663 22.1263 38.209 22.1267 38.9558 21.548L39.8461 20.8582L40.7361 21.5478C41.4827 22.1262 42.5257 22.1265 43.2723 21.5478L44.1624 20.8582L45.0529 21.5481C45.7992 22.1263 46.8421 22.1265 47.5886 21.548L48.4792 20.8581L49.3697 21.5481C50.116 22.1263 51.1588 22.1262 51.9056 21.548L52.7961 20.8581L53.6867 21.5481C54.4333 22.1265 55.4763 22.1265 56.2226 21.5478L57.1125 20.8582L58.0028 21.5478C58.7493 22.1265 59.7921 22.1265 60.5389 21.5483L61.43 20.8581L62.3209 21.5481C63.067 22.126 64.1096 22.1262 64.8562 21.5487C65.7848 20.8508 67.1268 19.9879 67.035 18.6541V15.478H71.6879V71.0722H57.7175C57.0072 71.0722 56.4312 71.648 56.4312 72.3585C56.4312 73.069 57.0072 73.6448 57.7175 73.6448H72.1167C73.2989 73.6448 74.2607 72.683 74.2607 71.5009V15.0494C74.2607 13.8672 73.2989 12.9054 72.1167 12.9054H67.035V12.8509C67.035 11.3003 65.7735 10.0387 64.2228 10.0387H59.9956C60.0035 9.88075 60.0076 9.72245 60.0076 9.56416C60.0076 8.29142 59.7565 7.05117 59.28 5.90013H77.0492C77.841 5.90013 78.485 6.54431 78.485 7.33597V59.25C78.4848 59.9605 79.0608 60.5364 79.7712 60.5364ZM29.1617 12.9054C27.9795 12.9054 27.0177 13.8672 27.0177 15.0494V28.9599C25.5716 29.198 24.1586 29.5656 22.7932 30.0585V7.33614C22.7932 6.54431 23.4374 5.9003 24.2291 5.9003H41.9982C41.5217 7.05152 41.2706 8.29159 41.2706 9.56433C41.2706 9.72262 41.2756 9.88092 41.2835 10.0389H37.0554C35.5047 10.0389 34.2432 11.3004 34.2432 12.8511V12.9056L29.1617 12.9054ZM64.4621 12.8509V18.6L63.5888 19.276L62.6978 18.5857C62.3245 18.2966 61.8771 18.1521 61.4299 18.1521C60.9826 18.1521 60.5354 18.2966 60.1623 18.5855L59.2711 19.2758L58.3806 18.586C57.634 18.0075 56.5909 18.0075 55.8444 18.586L54.9545 19.2756L54.0638 18.5857C53.3175 18.0079 52.2749 18.0077 51.528 18.5859L50.6375 19.2758L49.747 18.5857C49.0007 18.0075 47.9578 18.0073 47.2113 18.5859L46.3207 19.2758L45.4304 18.586C44.6836 18.0075 43.6404 18.0075 42.8942 18.586L42.004 19.2756L41.1141 18.586C40.3673 18.0075 39.3243 18.0075 38.5779 18.586L37.6876 19.2756L36.8158 18.6003V12.8509C36.8158 12.7187 36.9232 12.6113 37.0554 12.6113H64.2223C64.3547 12.6115 64.4621 12.7187 64.4621 12.8509ZM43.8618 10.0387C43.851 9.88092 43.8434 9.7228 43.8434 9.56416C43.8434 5.77431 46.9554 2.57263 50.639 2.57263C54.3227 2.57263 57.4346 5.77431 57.4346 9.56416C57.4346 9.72262 57.4271 9.88092 57.4162 10.0387H43.8618Z" fill="black"/>
<path d="M20.0703 63.1627C20.5636 63.6749 21.378 63.6895 21.8893 63.197L28.5579 56.7761C29.2665 57.194 30.0915 57.4348 30.9722 57.4348C33.6019 57.4348 35.7412 55.2956 35.7412 52.6659C35.7412 50.4821 34.2652 48.6377 32.2587 48.0748V41.7869C32.2587 41.0764 31.6827 40.5006 30.9724 40.5006C30.262 40.5006 29.6861 41.0764 29.6861 41.7869V48.0748C27.6796 48.6377 26.2035 50.4821 26.2035 52.6659C26.2035 53.4823 26.41 54.2511 26.773 54.9237L20.1052 61.3439C19.593 61.8367 19.5776 62.651 20.0703 63.1627ZM30.972 50.4697C32.1831 50.4697 33.1682 51.4549 33.1682 52.6659C33.1682 53.877 32.1831 54.8621 30.972 54.8621C29.761 54.8621 28.7758 53.877 28.7758 52.6659C28.7758 51.4549 29.761 50.4697 30.972 50.4697Z" fill="black"/>
<path d="M30.9407 70.865C31.6914 70.865 32.3 70.2564 32.3 69.5056C32.3 68.7548 31.6914 68.1462 30.9407 68.1462C30.1899 68.1462 29.5813 68.7548 29.5813 69.5056C29.5813 70.2564 30.1899 70.865 30.9407 70.865Z" fill="black"/>
<path d="M30.9407 37.0139C31.6914 37.0139 32.3 36.4053 32.3 35.6546C32.3 34.9038 31.6914 34.2952 30.9407 34.2952C30.1899 34.2952 29.5813 34.9038 29.5813 35.6546C29.5813 36.4053 30.1899 37.0139 30.9407 37.0139Z" fill="black"/>
<path d="M14.0151 53.9395C14.7659 53.9395 15.3745 53.3309 15.3745 52.5802C15.3745 51.8294 14.7659 51.2208 14.0151 51.2208C13.2644 51.2208 12.6558 51.8294 12.6558 52.5802C12.6558 53.3309 13.2644 53.9395 14.0151 53.9395Z" fill="black"/>
<path d="M47.8662 53.9395C48.6169 53.9395 49.2256 53.3309 49.2256 52.5802C49.2256 51.8294 48.6169 51.2208 47.8662 51.2208C47.1154 51.2208 46.5068 51.8294 46.5068 52.5802C46.5068 53.3309 47.1154 53.9395 47.8662 53.9395Z" fill="black"/>
<path d="M21.0995 66.4176C20.7147 67.0623 20.9256 67.897 21.5703 68.2816C22.215 68.6665 23.0496 68.4556 23.4343 67.8109C23.8191 67.1662 23.6082 66.3317 22.9635 65.9469C22.3188 65.562 21.4844 65.7729 21.0995 66.4176Z" fill="black"/>
<path d="M38.9176 39.2133C39.5623 39.5981 40.397 39.3874 40.7816 38.7425C41.1664 38.0978 40.9555 37.2632 40.3108 36.8786C39.6661 36.4937 38.8315 36.7044 38.4469 37.3493C38.0622 37.994 38.2729 38.8286 38.9176 39.2133Z" fill="black"/>
<path d="M17.1032 42.7391C16.4585 42.3543 15.624 42.565 15.2392 43.2099C14.8543 43.8546 15.0652 44.6891 15.7099 45.0739C16.3546 45.4587 17.1893 45.248 17.5739 44.6031C17.9586 43.9584 17.7479 43.1238 17.1032 42.7391Z" fill="black"/>
<path d="M44.778 62.4212C45.4227 62.806 46.2573 62.5951 46.642 61.9504C47.0268 61.3057 46.8159 60.4713 46.1712 60.0865C45.5265 59.7016 44.6919 59.9125 44.3072 60.5572C43.9226 61.2018 44.1333 62.0364 44.778 62.4212Z" fill="black"/>
<path d="M38.178 67.9405C38.5513 68.5919 39.382 68.8172 40.0334 68.4439C40.6848 68.0706 40.9101 67.2399 40.5368 66.5885C40.1635 65.9371 39.3328 65.7118 38.6814 66.0851C38.03 66.4584 37.8047 67.2892 38.178 67.9405Z" fill="black"/>
<path d="M23.1999 39.0751C23.8513 38.7018 24.0767 37.8711 23.7033 37.2197C23.33 36.5683 22.4994 36.343 21.8479 36.7163C21.1965 37.0896 20.9712 37.9203 21.3445 38.5717C21.7178 39.2231 22.5485 39.4484 23.1999 39.0751Z" fill="black"/>
<path d="M44.949 42.9839C44.2976 43.3572 44.0723 44.1879 44.4456 44.8393C44.8189 45.4907 45.6496 45.716 46.301 45.3427C46.9524 44.9694 47.1777 44.1387 46.8044 43.4873C46.4311 42.8359 45.6003 42.6106 44.949 42.9839Z" fill="black"/>
<path d="M15.5801 59.8175C14.9287 60.1908 14.7034 61.0215 15.0767 61.6729C15.45 62.3243 16.2807 62.5496 16.9321 62.1763C17.5835 61.803 17.8088 60.9723 17.4355 60.3209C17.0622 59.6695 16.2315 59.4442 15.5801 59.8175Z" fill="black"/>
<path d="M57.0312 36.5152H65.3637C66.074 36.5152 66.65 35.9394 66.65 35.2289C66.65 34.5183 66.074 33.9426 65.3637 33.9426H57.0312C56.3208 33.9426 55.7449 34.5183 55.7449 35.2289C55.7449 35.9394 56.3207 36.5152 57.0312 36.5152Z" fill="black"/>
<path d="M66.65 30.084C66.65 29.3734 66.074 28.7977 65.3637 28.7977H52.0781C51.3677 28.7977 50.7917 29.3734 50.7917 30.084C50.7917 30.7945 51.3677 31.3703 52.0781 31.3703H65.3635C66.074 31.3705 66.65 30.7945 66.65 30.084Z" fill="black"/>
</g>
<defs>
<clipPath id="clip0_87_1276">
<rect width="88" height="88" fill="white"/>
</clipPath>
</defs>
</svg>
