<svg width="48" height="48" viewBox="0 0 48 48" fill="none" xmlns="http://www.w3.org/2000/svg">
<g clip-path="url(#clip0_87_1432)">
<path d="M46.997 12.3716C46.445 10.2929 44.8185 8.65598 42.7533 8.10032C39.01 7.09082 24 7.09082 24 7.09082C24 7.09082 8.98997 7.09082 5.24672 8.10032C3.1815 8.65588 1.55503 10.2929 1.00303 12.3716C0 16.1392 0 23.9999 0 23.9999C0 23.9999 0 31.8607 1.00303 35.6283C1.55503 37.7069 3.1815 39.3439 5.24672 39.8996C8.98997 40.9091 24 40.9091 24 40.9091C24 40.9091 39.01 40.9091 42.7533 39.8996C44.8185 39.3439 46.445 37.7069 46.997 35.6283C48 31.8607 48 23.9999 48 23.9999C48 23.9999 48 16.1392 46.997 12.3716Z" fill="white"/>
<path d="M19.0908 31.137L31.6363 24.0002L19.0908 16.863V31.137Z" fill="black"/>
</g>
<defs>
<clipPath id="clip0_87_1432">
<rect width="48" height="48" fill="white"/>
</clipPath>
</defs>
</svg>
